<svg width="20" height="21" viewBox="0 0 20 21" fill="none" xmlns="http://www.w3.org/2000/svg">
<path d="M8.07056 9.42238C8.07056 9.42238 9.96288 9.28372 9.96288 7.09342C9.96288 4.90297 8.41472 3.83398 6.45364 3.83398H0.000488281V16.0745H6.45364C6.45364 16.0745 10.3931 16.1974 10.3931 12.4617C10.3931 12.4617 10.5648 9.42238 8.07056 9.42238ZM5.98915 6.00961H6.45364C6.45364 6.00961 7.33081 6.00961 7.33081 7.28318C7.33081 8.5566 6.81494 8.74123 6.22981 8.74123H2.84383V6.00961H5.98915ZM6.27129 13.899H2.84383V10.6279H6.45364C6.45364 10.6279 7.76103 10.6109 7.76103 12.3089C7.76103 13.7406 6.78454 13.8882 6.27129 13.899ZM15.6469 6.94834C10.8779 6.94834 10.8821 11.6515 10.8821 11.6515C10.8821 11.6515 10.5549 16.3306 15.6469 16.3306C15.6469 16.3306 19.8903 16.5699 19.8903 13.0756H17.708C17.708 13.0756 17.7808 14.3915 15.7197 14.3915C15.7197 14.3915 13.5371 14.5359 13.5371 12.2619H19.9631C19.9631 12.2619 20.6662 6.94834 15.6469 6.94834ZM13.5131 10.6279C13.5131 10.6279 13.7796 8.74119 15.6954 8.74119C17.6109 8.74119 17.5869 10.6279 17.5869 10.6279H13.5131ZM18.0952 6.06244H12.9788V4.55511H18.0952V6.06244Z" fill="#3461FD"/>
</svg>
