<svg width="737" height="657" viewBox="0 0 737 657" fill="none" xmlns="http://www.w3.org/2000/svg">
<g clip-path="url(#clip0_132_2619)">
<path opacity="0.5" d="M442.635 574.097L179.724 422.339C172.358 418.049 173.223 410.556 181.805 405.585L360.829 302.302C369.43 297.331 382.413 296.779 389.854 301.087L652.782 452.9C660.149 457.19 659.283 464.683 650.683 469.654L471.658 572.937C463.077 577.853 450.075 578.387 442.635 574.097Z" fill="#173D7A"/>
<path d="M726.448 159.601L452.856 1.69372C451.495 0.847467 449.967 0.307059 448.377 0.109959C446.787 -0.0871404 445.173 0.0637827 443.648 0.552267L443.15 0.736373H443.021L433.132 4.52895L441.99 8.89226C441.99 9.05796 441.898 9.20524 441.861 9.37094L397.294 212.145C395.047 222.289 399.522 234.238 407.257 238.62L674.293 392.716L673.354 404.039L684.145 399.841C687.829 398.147 690.683 394.318 691.899 388.795L736.448 186.02C738.639 175.913 734.182 164.057 726.448 159.601Z" fill="#173D7A"/>
<path d="M726.447 159.601L452.856 1.69372C451.495 0.847467 449.967 0.307059 448.377 0.109959C446.787 -0.0871404 445.173 0.0637827 443.647 0.552267L443.15 0.736373H443.021L433.132 4.52895L441.99 8.89226C441.99 9.05796 441.898 9.20524 441.861 9.37094L412.524 143.013L546.373 247.272L735.121 170.5C733.542 165.993 730.486 162.152 726.447 159.601Z" fill="#396CAA"/>
<path d="M716.134 190.77L736.945 181.896C737.331 173.833 733.998 165.511 728.51 161.056L695.545 174.9L716.134 190.77Z" fill="#274F89"/>
<path d="M663.814 402.952L390.222 245.045C382.487 240.589 378.012 228.733 380.24 218.589L424.808 15.8146C427.036 5.65194 435.121 1.08612 442.856 5.52307L716.392 163.431C724.127 167.886 728.602 179.742 726.355 189.887L681.862 392.661C679.56 402.823 671.549 407.426 663.814 402.952Z" fill="#D4ECFF"/>
<path d="M719.063 162.455L445.489 4.56573C443.893 3.54843 442.058 2.96868 440.167 2.88466C438.276 2.80065 436.396 3.21532 434.716 4.08706C437.513 3.51792 440.422 4.03114 442.856 5.52308L716.392 163.431C724.127 167.886 728.602 179.742 726.356 189.887L681.862 392.661C681.504 394.876 680.667 396.987 679.411 398.847C678.155 400.707 676.509 402.271 674.587 403.431C679.192 402.418 683.059 398.221 684.477 391.703L729.044 188.929C731.273 178.785 726.816 166.929 719.063 162.455Z" fill="white"/>
<path d="M657.884 387.874L400.572 239.43C393.5 235.342 389.412 224.517 391.456 215.22L432.229 29.6593C434.274 20.454 441.659 16.1644 448.804 20.2515L706.042 168.678C713.133 172.765 717.221 183.609 715.25 192.888L674.403 378.466C672.359 387.745 664.956 391.961 657.884 387.874Z" fill="white"/>
<path d="M657.884 387.874L400.572 239.43C393.5 235.342 389.412 224.517 391.456 215.22L432.229 29.6593C434.274 20.454 441.659 16.1644 448.804 20.2515L706.042 168.678C713.133 172.765 717.221 183.609 715.25 192.888L674.403 378.466C672.359 387.745 664.956 391.961 657.884 387.874Z" fill="#173D7A"/>
<path d="M660.112 386.953L402.819 238.527C395.728 234.44 391.658 223.596 393.611 214.317L434.403 28.7388C434.728 26.7453 435.474 24.8439 436.592 23.1614C437.709 21.4788 439.173 20.0538 440.885 18.9812C436.797 20.0306 433.427 23.86 432.156 29.6593L391.456 215.22C389.412 224.425 393.5 235.342 400.572 239.43L657.884 387.874C659.37 388.823 661.083 389.356 662.845 389.418C664.607 389.479 666.354 389.067 667.902 388.224C666.584 388.535 665.217 388.583 663.881 388.365C662.544 388.147 661.263 387.667 660.112 386.953Z" fill="#5793CE"/>
<path d="M667.589 409.838L630.186 404.904L388.785 265.573C381.051 261.099 367.533 261.651 358.583 266.806L187.533 365.505L164.918 362.523V375.41C164.77 378.374 166.464 381.228 170.111 383.327L443.721 541.271C451.456 545.745 464.973 545.174 473.905 540.019L660.204 432.538C665.232 429.629 667.736 425.892 667.571 422.394L667.589 409.838Z" fill="#173D7A"/>
<path d="M486.189 321.799L469.025 311.894H280.48L187.533 365.505L164.918 362.523V375.41C164.77 378.374 166.464 381.228 170.111 383.327L443.721 541.271C448.529 543.711 453.935 544.727 459.301 544.198L486.189 321.799Z" fill="#396CAA"/>
<path d="M174.954 363.848L164.918 362.523V375.41C164.77 378.374 166.464 381.228 170.111 383.327L174.954 386.051V363.848Z" fill="#5793CE"/>
<path d="M446.465 542.468C454.91 545.207 464.081 544.634 472.119 540.866V512.256H446.465V542.468Z" fill="#274F89"/>
<path d="M443.721 528.384L170.129 370.458C162.394 366.002 163.371 358.196 172.302 353.041L358.583 245.56C367.533 240.387 381.051 239.835 388.785 244.308L662.359 402.198C670.112 406.671 669.136 414.477 660.204 419.632L473.905 527.113C464.973 532.268 451.456 532.839 443.721 528.384Z" fill="#D4ECFF"/>
<path d="M660.204 414.956L473.905 522.437C464.974 527.592 451.456 528.144 443.721 523.689L170.129 365.781C167.943 364.665 166.235 362.795 165.323 360.516C164.107 364.198 165.654 367.88 170.129 370.458L443.721 528.384C451.456 532.857 464.974 532.287 473.905 527.132L660.204 419.651C666.208 416.19 668.602 411.532 667.184 407.481C665.835 410.733 663.356 413.387 660.204 414.956Z" fill="white"/>
<path d="M286.483 318.19L274.108 311.139C273.113 310.568 273.242 309.555 274.384 308.893L289.006 300.461C289.593 300.131 290.25 299.945 290.922 299.92C291.595 299.894 292.264 300.029 292.874 300.313L305.25 307.457C306.244 308.027 306.134 309.022 304.973 309.684L290.369 318.116C289.772 318.431 289.11 318.601 288.435 318.614C287.76 318.627 287.092 318.481 286.483 318.19Z" fill="#5793CE"/>
<path d="M305.599 329.218L293.223 322.075C292.229 321.504 292.358 320.51 293.5 319.847L308.122 311.415C308.709 311.086 309.364 310.9 310.036 310.871C310.708 310.843 311.377 310.972 311.99 311.249L324.365 318.393C325.36 318.963 325.249 319.976 324.089 320.62L309.485 329.071C308.894 329.397 308.234 329.58 307.56 329.605C306.885 329.631 306.213 329.498 305.599 329.218Z" fill="#5793CE"/>
<path d="M324.715 340.264L312.34 333.103C311.345 332.532 311.474 331.538 312.616 330.875L327.238 322.443C327.825 322.114 328.481 321.928 329.152 321.899C329.824 321.871 330.493 322 331.106 322.277L343.481 329.421C344.476 329.991 344.365 331.004 343.205 331.667L328.601 340.099C328.011 340.427 327.353 340.614 326.678 340.642C326.003 340.671 325.331 340.542 324.715 340.264Z" fill="#5793CE"/>
<path d="M351.161 331.151L338.859 324.026C337.865 323.437 337.994 322.443 339.135 321.78L351.401 314.71C351.987 314.382 352.643 314.196 353.315 314.167C353.986 314.138 354.655 314.268 355.268 314.545L367.662 321.688C368.657 322.259 368.528 323.253 367.367 323.916L355.121 331.004C354.52 331.34 353.847 331.529 353.159 331.555C352.47 331.58 351.786 331.442 351.161 331.151Z" fill="#5793CE"/>
<path d="M370.277 342.179L357.902 335.073C356.907 334.502 357.036 333.489 358.178 332.826L370.443 325.757C371.03 325.428 371.685 325.242 372.357 325.213C373.029 325.184 373.698 325.314 374.311 325.591L386.705 332.734C387.699 333.305 387.57 334.318 386.428 334.98L374.163 342.05C373.57 342.372 372.91 342.551 372.235 342.573C371.561 342.596 370.891 342.461 370.277 342.179Z" fill="#5793CE"/>
<path d="M389.393 353.207L377.017 346.119C376.023 345.548 376.152 344.554 377.294 343.891L389.559 336.803C390.145 336.475 390.801 336.288 391.473 336.26C392.145 336.231 392.814 336.36 393.426 336.637L405.82 343.781C406.815 344.37 406.686 345.364 405.544 346.027L393.279 353.096C392.684 353.415 392.023 353.591 391.349 353.61C390.675 353.629 390.005 353.491 389.393 353.207Z" fill="#5793CE"/>
<path d="M408.509 364.253L396.134 357.165C395.139 356.595 395.268 355.6 396.41 354.938L408.675 347.85C409.262 347.52 409.918 347.334 410.591 347.308C411.263 347.283 411.932 347.418 412.542 347.702L424.937 354.846C425.931 355.416 425.802 356.41 424.66 357.073L412.395 364.161C411.799 364.477 411.138 364.65 410.463 364.666C409.789 364.682 409.12 364.541 408.509 364.253Z" fill="#5793CE"/>
<path d="M427.625 375.281L415.25 368.212C414.255 367.641 414.384 366.628 415.526 365.966L427.791 358.896C428.378 358.567 429.033 358.381 429.705 358.352C430.377 358.324 431.046 358.453 431.659 358.73L444.053 365.874C445.047 366.444 444.918 367.457 443.777 368.12L431.511 375.189C430.915 375.505 430.254 375.678 429.579 375.694C428.905 375.71 428.236 375.569 427.625 375.281Z" fill="#5793CE"/>
<path d="M446.741 386.309L434.365 379.258C433.371 378.687 433.5 377.675 434.642 377.012L446.907 369.942C447.494 369.614 448.149 369.427 448.821 369.399C449.493 369.37 450.162 369.499 450.774 369.776L463.169 376.92C464.163 377.491 464.034 378.503 462.892 379.166L450.627 386.236C450.029 386.548 449.367 386.718 448.693 386.731C448.018 386.744 447.35 386.599 446.741 386.309Z" fill="#5793CE"/>
<path d="M465.931 397.337L453.555 390.194C452.561 389.623 452.69 388.629 453.832 387.966L466.097 380.878C466.683 380.548 467.34 380.363 468.013 380.337C468.685 380.311 469.354 380.446 469.964 380.731L482.358 387.874C483.353 388.445 483.224 389.439 482.082 390.102L469.817 397.19C469.227 397.52 468.567 397.705 467.892 397.731C467.216 397.757 466.544 397.622 465.931 397.337Z" fill="#5793CE"/>
<path d="M484.974 408.384L472.598 401.24C471.603 400.651 471.732 399.657 472.874 398.994L485.139 391.924C485.726 391.596 486.382 391.41 487.053 391.381C487.725 391.352 488.394 391.482 489.007 391.759L501.401 398.902C502.395 399.473 502.266 400.467 501.125 401.13L488.859 408.218C488.269 408.545 487.611 408.731 486.936 408.759C486.262 408.788 485.59 408.66 484.974 408.384Z" fill="#5793CE"/>
<path d="M504.09 419.411L491.714 412.268C490.72 411.697 490.849 410.685 491.99 410.022L504.256 402.952C504.842 402.624 505.498 402.438 506.17 402.409C506.841 402.38 507.51 402.509 508.123 402.787L520.517 409.93C521.512 410.501 521.383 411.513 520.241 412.176L507.976 419.246C507.385 419.573 506.727 419.759 506.052 419.787C505.378 419.816 504.706 419.687 504.09 419.411Z" fill="#5793CE"/>
<path d="M523.206 430.439L510.83 423.296C509.835 422.725 509.964 421.731 511.106 421.068L523.371 413.98C523.958 413.652 524.613 413.466 525.285 413.437C525.957 413.408 526.626 413.537 527.239 413.815L539.633 420.958C540.627 421.547 540.498 422.541 539.357 423.204L527.091 430.292C526.5 430.618 525.841 430.801 525.166 430.827C524.491 430.852 523.82 430.72 523.206 430.439Z" fill="#5793CE"/>
<path d="M379.375 325.867L366.999 318.724C366.005 318.153 366.134 317.141 367.276 316.478L379.541 309.408C380.131 309.081 380.79 308.895 381.464 308.866C382.139 308.838 382.81 308.966 383.427 309.242L395.802 316.386C396.797 316.956 396.668 317.969 395.526 318.632L383.261 325.701C382.671 326.03 382.012 326.217 381.338 326.245C380.663 326.274 379.991 326.145 379.375 325.867Z" fill="#5793CE"/>
<path d="M359.927 314.821L347.552 307.678C346.557 307.088 346.686 306.094 347.828 305.432L360.093 298.362C360.68 298.033 361.335 297.847 362.007 297.818C362.679 297.789 363.348 297.919 363.96 298.196L376.355 305.339C377.349 305.91 377.22 306.904 376.06 307.567L363.795 314.655C363.208 314.984 362.552 315.17 361.881 315.199C361.209 315.228 360.54 315.098 359.927 314.821Z" fill="#5793CE"/>
<path d="M340.498 303.498L313.831 288.126C312.837 287.536 312.966 286.542 314.108 285.879L326.373 278.81C326.963 278.481 327.621 278.295 328.296 278.266C328.971 278.237 329.643 278.367 330.259 278.644L356.907 294.035C357.901 294.606 357.791 295.6 356.631 296.263L344.384 303.351C343.795 303.684 343.135 303.871 342.459 303.897C341.783 303.923 341.11 303.786 340.498 303.498Z" fill="#5793CE"/>
<path d="M354.071 289.875L332.432 277.374C331.456 276.803 331.566 275.809 332.727 275.146L344.992 268.058C345.578 267.729 346.234 267.543 346.906 267.514C347.578 267.486 348.247 267.615 348.859 267.892L370.498 280.393C371.493 280.964 371.364 281.958 370.222 282.621L357.957 289.709C357.367 290.038 356.708 290.224 356.034 290.253C355.359 290.281 354.687 290.152 354.071 289.875Z" fill="#5793CE"/>
<path d="M398.436 336.914L386.06 329.77C385.065 329.2 385.194 328.205 386.336 327.543L398.601 320.455C399.192 320.127 399.85 319.942 400.525 319.913C401.199 319.884 401.871 320.013 402.487 320.289L414.863 327.432C415.857 328.021 415.728 329.015 414.587 329.678L402.321 336.748C401.732 337.077 401.073 337.263 400.398 337.292C399.723 337.32 399.051 337.191 398.436 336.914Z" fill="#5793CE"/>
<path d="M417.552 347.96L405.157 340.835C404.163 340.264 404.292 339.27 405.434 338.607L417.699 331.519C418.289 331.189 418.949 331.004 419.624 330.978C420.3 330.953 420.972 331.088 421.585 331.372L433.961 338.515C434.955 339.086 434.826 340.08 433.684 340.743L421.419 347.831C420.83 348.155 420.173 348.336 419.501 348.358C418.829 348.381 418.161 348.244 417.552 347.96Z" fill="#5793CE"/>
<path d="M436.668 359.006L424.292 351.863C423.298 351.292 423.427 350.28 424.568 349.617L436.834 342.547C437.424 342.22 438.083 342.034 438.757 342.006C439.432 341.977 440.103 342.106 440.72 342.382L453.095 349.525C454.09 350.096 453.961 351.108 452.819 351.771L440.554 358.841C439.964 359.169 439.305 359.356 438.631 359.384C437.956 359.413 437.284 359.284 436.668 359.006Z" fill="#5793CE"/>
<path d="M455.784 370.053L443.408 362.909C442.413 362.339 442.542 361.326 443.684 360.663L455.949 353.594C456.54 353.266 457.198 353.081 457.873 353.052C458.547 353.023 459.219 353.152 459.835 353.428L472.211 360.571C473.205 361.142 473.077 362.154 471.935 362.817L459.67 369.887C459.08 370.216 458.421 370.402 457.746 370.431C457.072 370.459 456.399 370.33 455.784 370.053Z" fill="#5793CE"/>
<path d="M474.9 381.099L462.524 373.956C461.53 373.385 461.659 372.391 462.8 371.728L475.066 364.64C475.656 364.31 476.315 364.124 476.991 364.099C477.666 364.073 478.338 364.208 478.951 364.493L491.327 371.636C492.322 372.207 492.193 373.201 491.051 373.864L478.823 380.933C478.23 381.272 477.564 381.464 476.881 381.493C476.199 381.522 475.519 381.387 474.9 381.099Z" fill="#5793CE"/>
<path d="M494.016 392.145L481.64 385.002C480.646 384.413 480.775 383.419 481.917 382.756L494.182 375.686C494.772 375.359 495.431 375.173 496.105 375.145C496.78 375.116 497.452 375.245 498.068 375.521L510.443 382.664C511.438 383.235 511.309 384.229 510.167 384.892L497.902 391.98C497.312 392.308 496.653 392.495 495.979 392.524C495.304 392.552 494.632 392.423 494.016 392.145Z" fill="#5793CE"/>
<path d="M513.132 403.192L500.756 396.048C499.762 395.478 499.891 394.465 501.032 393.802L513.298 386.733C513.888 386.405 514.546 386.22 515.221 386.191C515.895 386.162 516.567 386.291 517.183 386.567L529.559 393.71C530.554 394.281 530.425 395.294 529.283 395.956L517.018 403.026C516.428 403.355 515.769 403.541 515.094 403.57C514.42 403.599 513.748 403.469 513.132 403.192Z" fill="#5793CE"/>
<path d="M532.229 414.238L519.854 407.095C518.859 406.524 518.988 405.53 520.13 404.867L532.414 397.668C533.004 397.341 533.663 397.156 534.337 397.127C535.012 397.098 535.683 397.227 536.299 397.503L548.675 404.646C549.67 405.235 549.541 406.229 548.399 406.892L536.134 413.98C535.547 414.323 534.89 414.524 534.212 414.569C533.534 414.614 532.856 414.5 532.229 414.238Z" fill="#5793CE"/>
<path d="M551.364 425.284L538.989 418.123C537.994 417.552 538.123 416.558 539.265 415.895L551.53 408.807C552.121 408.481 552.781 408.298 553.455 408.272C554.13 408.247 554.802 408.379 555.416 408.66L567.792 415.803C568.786 416.374 568.657 417.368 567.515 418.031L555.25 425.119C554.66 425.447 554.002 425.634 553.327 425.662C552.652 425.691 551.98 425.562 551.364 425.284Z" fill="#5793CE"/>
<path d="M585.361 444.836L558.344 429.243C557.35 428.672 557.478 427.678 558.62 427.015L570.885 419.927C571.476 419.599 572.134 419.414 572.809 419.385C573.483 419.357 574.155 419.485 574.771 419.761L601.77 435.355C602.764 435.926 602.653 436.938 601.493 437.601L589.32 444.671C588.722 445.015 588.05 445.209 587.361 445.238C586.671 445.267 585.985 445.129 585.361 444.836Z" fill="#5793CE"/>
<path d="M622.58 423.443L599.781 410.298C598.786 409.709 598.915 408.715 600.057 408.052L612.322 400.964C612.91 400.638 613.566 400.455 614.238 400.43C614.91 400.404 615.578 400.537 616.189 400.817L639.044 413.87C640.038 414.459 639.91 415.453 638.768 416.116L626.503 423.186C625.917 423.538 625.255 423.745 624.572 423.79C623.89 423.835 623.207 423.716 622.58 423.443Z" fill="#5793CE"/>
<path d="M431.916 334.796L419.541 327.708C418.546 327.138 418.675 326.125 419.817 325.462L432.082 318.393C432.672 318.064 433.331 317.878 434.005 317.849C434.68 317.82 435.352 317.95 435.968 318.227L448.344 325.37C449.338 325.941 449.209 326.953 448.068 327.616L435.802 334.686C435.208 335.005 434.547 335.181 433.872 335.2C433.198 335.219 432.528 335.081 431.916 334.796Z" fill="#5793CE"/>
<path d="M412.321 323.492L399.946 316.349C398.951 315.778 399.08 314.766 400.222 314.103L412.487 307.033C413.077 306.706 413.736 306.52 414.41 306.492C415.085 306.463 415.757 306.592 416.373 306.868L428.749 314.011C429.743 314.582 429.614 315.594 428.472 316.257L416.207 323.327C415.617 323.655 414.959 323.842 414.284 323.87C413.609 323.899 412.937 323.77 412.321 323.492Z" fill="#5793CE"/>
<path d="M392.745 312.188L380.351 305.026C379.356 304.456 379.485 303.462 380.627 302.799L392.892 295.711C393.484 295.385 394.143 295.202 394.818 295.176C395.492 295.151 396.164 295.283 396.778 295.563L409.154 302.707C410.148 303.277 410.019 304.272 408.878 304.934L396.612 312.022C396.026 312.351 395.37 312.537 394.698 312.566C394.027 312.595 393.358 312.465 392.745 312.188Z" fill="#5793CE"/>
<path d="M373.15 300.866L360.775 293.722C359.78 293.152 359.891 292.158 361.051 291.495L373.316 284.407C373.903 284.078 374.558 283.892 375.23 283.863C375.902 283.834 376.571 283.964 377.183 284.241L389.559 291.403C390.554 291.973 390.443 292.968 389.283 293.63L377.018 300.718C376.431 301.048 375.774 301.234 375.102 301.259C374.429 301.285 373.76 301.15 373.15 300.866Z" fill="#5793CE"/>
<path d="M451.032 345.824L438.657 338.755C437.662 338.184 437.791 337.19 438.933 336.527L451.198 329.365C451.788 329.036 452.446 328.85 453.121 328.821C453.796 328.793 454.468 328.922 455.084 329.2L467.46 336.343C468.454 336.932 468.325 337.926 467.183 338.589L454.881 345.677C454.293 345.993 453.641 346.17 452.974 346.196C452.307 346.222 451.643 346.094 451.032 345.824Z" fill="#5793CE"/>
<path d="M470.148 356.871L457.773 349.801C456.778 349.23 456.907 348.236 458.049 347.573L470.314 340.485C470.905 340.159 471.565 339.976 472.24 339.951C472.914 339.925 473.586 340.058 474.2 340.338L486.576 347.481C487.57 348.052 487.441 349.046 486.299 349.709L474.034 356.797C473.437 357.11 472.775 357.279 472.1 357.292C471.426 357.305 470.757 357.161 470.148 356.871Z" fill="#5793CE"/>
<path d="M489.264 367.899L476.981 360.847C475.986 360.277 476.115 359.264 477.257 358.601L489.522 351.532C490.112 351.203 490.771 351.017 491.445 350.988C492.12 350.959 492.792 351.089 493.408 351.366L505.784 358.509C506.778 359.08 506.649 360.093 505.507 360.755L493.242 367.825C492.633 368.153 491.954 368.331 491.262 368.344C490.57 368.356 489.885 368.204 489.264 367.899Z" fill="#5793CE"/>
<path d="M508.381 378.926L496.005 371.783C495.011 371.212 495.14 370.2 496.281 369.537L508.547 362.467C509.136 362.139 509.795 361.952 510.47 361.924C511.145 361.895 511.817 362.024 512.432 362.302L524.808 369.445C525.803 370.016 525.674 371.028 524.532 371.691L512.267 378.761C511.676 379.088 511.018 379.274 510.343 379.302C509.669 379.331 508.997 379.202 508.381 378.926Z" fill="#5793CE"/>
<path d="M527.497 389.955L515.121 382.811C514.126 382.24 514.255 381.246 515.397 380.584L527.662 373.495C528.252 373.165 528.912 372.98 529.588 372.954C530.263 372.929 530.935 373.064 531.548 373.348L543.924 380.491C544.918 381.062 544.789 382.056 543.648 382.719L531.382 389.807C530.793 390.137 530.133 390.323 529.457 390.348C528.782 390.374 528.11 390.239 527.497 389.955Z" fill="#5793CE"/>
<path d="M546.613 401.001L534.237 393.858C533.243 393.268 533.372 392.274 534.513 391.611L546.779 384.542C547.368 384.213 548.027 384.027 548.702 383.998C549.377 383.969 550.049 384.099 550.664 384.376L563.04 391.519C564.035 392.09 563.906 393.084 562.764 393.747L550.499 400.835C549.908 401.163 549.25 401.348 548.575 401.377C547.901 401.406 547.229 401.277 546.613 401.001Z" fill="#5793CE"/>
<path d="M565.729 412.029L553.353 404.885C552.359 404.315 552.488 403.302 553.63 402.639L565.895 395.57C566.485 395.241 567.143 395.055 567.818 395.026C568.493 394.997 569.165 395.127 569.781 395.404L582.156 402.547C583.151 403.118 583.022 404.131 581.88 404.793L569.615 411.863C569.024 412.191 568.366 412.376 567.691 412.405C567.017 412.433 566.345 412.305 565.729 412.029Z" fill="#5793CE"/>
<path d="M584.845 423.057L572.469 415.913C571.475 415.343 571.603 414.349 572.745 413.686L585.01 406.598C585.6 406.269 586.259 406.083 586.934 406.054C587.608 406.025 588.281 406.155 588.896 406.432L601.272 413.575C602.266 414.164 602.138 415.159 600.996 415.821L588.731 422.909C588.139 423.235 587.48 423.418 586.805 423.444C586.13 423.47 585.459 423.337 584.845 423.057Z" fill="#5793CE"/>
<path d="M604.053 434.103L591.678 426.96C590.683 426.371 590.812 425.376 591.954 424.714L604.219 417.626C604.81 417.3 605.47 417.117 606.144 417.091C606.819 417.065 607.491 417.198 608.105 417.478L620.481 424.622C621.475 425.192 621.346 426.186 620.204 426.849L607.939 433.937C607.349 434.265 606.69 434.45 606.016 434.479C605.341 434.508 604.669 434.379 604.053 434.103Z" fill="#5793CE"/>
<path d="M421.861 307.457L409.467 300.313C408.472 299.724 408.601 298.73 409.761 298.067L422.027 290.979C422.616 290.658 423.272 290.477 423.943 290.452C424.614 290.426 425.282 290.556 425.894 290.832L438.27 297.975C439.264 298.546 439.135 299.54 437.994 300.203L425.728 307.291C425.142 307.62 424.486 307.806 423.814 307.835C423.143 307.863 422.474 307.734 421.861 307.457Z" fill="#5793CE"/>
<path d="M402.837 296.521L390.424 289.377C389.43 288.807 389.54 287.813 390.701 287.15L402.966 280.062C403.552 279.733 404.208 279.547 404.88 279.518C405.552 279.489 406.221 279.619 406.833 279.896L419.209 287.058C420.204 287.628 420.093 288.623 418.933 289.285L406.704 296.41C406.113 296.73 405.456 296.907 404.784 296.926C404.112 296.945 403.445 296.806 402.837 296.521Z" fill="#5793CE"/>
<path d="M383.813 285.548L371.437 278.405C370.443 277.834 370.572 276.821 371.714 276.159L383.979 269.089C384.565 268.76 385.221 268.574 385.893 268.545C386.564 268.517 387.234 268.646 387.846 268.923L400.24 276.067C401.235 276.637 401.106 277.65 399.946 278.313L387.68 285.364C387.095 285.695 386.44 285.885 385.769 285.917C385.097 285.949 384.427 285.823 383.813 285.548Z" fill="#5793CE"/>
<path d="M364.789 274.575L352.413 267.432C351.419 266.843 351.548 265.849 352.69 265.186L364.955 258.116C365.545 257.788 366.203 257.601 366.878 257.573C367.553 257.544 368.225 257.673 368.841 257.951L381.216 265.112C382.211 265.683 382.082 266.677 380.94 267.34L368.675 274.428C368.083 274.753 367.424 274.935 366.749 274.96C366.075 274.986 365.404 274.854 364.789 274.575Z" fill="#5793CE"/>
<path d="M384.347 263.271L372.008 256.128C371.014 255.557 371.142 254.563 372.284 253.9L376.336 251.562C376.926 251.235 377.585 251.049 378.259 251.021C378.934 250.992 379.606 251.121 380.222 251.396L392.597 258.54C393.592 259.11 393.463 260.123 392.321 260.786L388.27 263.124C387.673 263.454 387.007 263.64 386.326 263.666C385.644 263.691 384.967 263.556 384.347 263.271Z" fill="#5793CE"/>
<path d="M409.172 277.613L396.797 270.47C395.802 269.881 395.931 268.887 397.073 268.224L401.124 265.886C401.714 265.557 402.373 265.371 403.048 265.342C403.722 265.313 404.395 265.443 405.01 265.72L417.386 272.863C418.38 273.434 418.252 274.447 417.11 275.109L413.058 277.447C412.468 277.775 411.809 277.96 411.135 277.989C410.46 278.018 409.788 277.889 409.172 277.613Z" fill="#5793CE"/>
<path d="M428.122 288.549L415.728 281.387C414.734 280.817 414.863 279.822 416.005 279.16L420.075 276.821C420.661 276.493 421.317 276.307 421.988 276.278C422.66 276.249 423.329 276.379 423.942 276.656L436.318 283.799C437.312 284.37 437.202 285.382 436.041 286.045L431.99 288.383C431.403 288.712 430.748 288.898 430.076 288.927C429.404 288.956 428.735 288.826 428.122 288.549Z" fill="#5793CE"/>
<path d="M447.054 299.466L434.623 292.323C433.629 291.752 433.758 290.758 434.9 290.096L438.951 287.757C439.541 287.43 440.2 287.245 440.874 287.216C441.549 287.187 442.221 287.316 442.837 287.592L455.213 294.735C456.207 295.306 456.078 296.318 454.936 296.981L450.885 299.319C450.302 299.64 449.652 299.821 448.987 299.846C448.322 299.872 447.66 299.742 447.054 299.466Z" fill="#5793CE"/>
<path d="M465.931 310.402L453.537 303.259C452.543 302.688 452.672 301.694 453.832 301.031L457.883 298.675C458.471 298.349 459.128 298.166 459.8 298.141C460.471 298.115 461.14 298.248 461.751 298.528L474.127 305.671C475.121 306.242 475.01 307.236 473.85 307.899L469.799 310.237C469.212 310.565 468.557 310.751 467.885 310.78C467.213 310.809 466.544 310.68 465.931 310.402Z" fill="#5793CE"/>
<path d="M571.751 371.433L559.375 364.29C558.381 363.719 558.491 362.725 559.651 362.062L563.703 359.724C564.29 359.396 564.945 359.209 565.617 359.181C566.289 359.152 566.958 359.281 567.57 359.559L579.965 366.702C580.959 367.273 580.83 368.285 579.67 368.948L575.618 371.286C575.032 371.616 574.375 371.802 573.702 371.827C573.03 371.853 572.361 371.718 571.751 371.433Z" fill="#5793CE"/>
<path d="M590.683 382.369L578.27 375.226C577.276 374.655 577.405 373.661 578.547 372.998L582.598 370.66C583.188 370.333 583.847 370.147 584.521 370.119C585.196 370.09 585.868 370.219 586.484 370.495L598.86 377.638C599.854 378.209 599.725 379.203 598.583 379.865L594.532 382.222C593.944 382.538 593.291 382.715 592.624 382.741C591.957 382.767 591.293 382.639 590.683 382.369Z" fill="#5793CE"/>
<path d="M609.578 393.305L597.202 386.162C596.208 385.591 596.318 384.579 597.479 383.916L601.53 381.578C602.12 381.248 602.78 381.062 603.455 381.037C604.131 381.011 604.803 381.146 605.416 381.43L617.792 388.574C618.786 389.144 618.657 390.139 617.515 390.801L613.445 393.14C612.859 393.468 612.203 393.654 611.531 393.683C610.86 393.712 610.191 393.582 609.578 393.305Z" fill="#5793CE"/>
<path d="M628.565 404.241L616.189 397.098C615.195 396.527 615.324 395.515 616.465 394.852L620.517 392.514C621.107 392.186 621.766 392.001 622.44 391.972C623.115 391.943 623.787 392.072 624.403 392.348L636.779 399.491C637.773 400.08 637.644 401.075 636.502 401.737L632.451 404.075C631.861 404.404 631.202 404.59 630.528 404.619C629.853 404.648 629.181 404.519 628.565 404.241Z" fill="#5793CE"/>
<path d="M440.977 318.503L428.583 311.36C427.589 310.789 427.717 309.776 428.878 309.114L441.143 302.044C441.729 301.715 442.385 301.529 443.057 301.5C443.729 301.472 444.398 301.601 445.01 301.878L457.386 309.022C458.381 309.592 458.252 310.605 457.11 311.268L444.845 318.337C444.258 318.666 443.602 318.852 442.931 318.881C442.259 318.91 441.59 318.78 440.977 318.503Z" fill="#5793CE"/>
<path d="M460.093 329.549L447.699 322.406C446.705 321.835 446.834 320.841 447.994 320.178L460.259 313.09C460.845 312.776 461.497 312.603 462.161 312.584C462.826 312.565 463.486 312.7 464.09 312.98L476.465 320.123C477.46 320.712 477.331 321.706 476.189 322.369L463.924 329.439C463.338 329.753 462.686 329.926 462.022 329.945C461.357 329.965 460.697 329.829 460.093 329.549Z" fill="#5793CE"/>
<path d="M479.209 340.596L466.815 333.434C465.82 332.863 465.949 331.869 467.11 331.206L479.375 324.118C479.961 323.788 480.618 323.603 481.291 323.577C481.963 323.552 482.632 323.687 483.242 323.971L495.618 331.114C496.612 331.685 496.484 332.679 495.342 333.342L483.077 340.43C482.49 340.759 481.834 340.945 481.163 340.974C480.491 341.002 479.822 340.873 479.209 340.596Z" fill="#5793CE"/>
<path d="M498.325 351.642L485.931 344.499C484.937 343.928 485.066 342.915 486.226 342.253L498.491 335.183C499.078 334.854 499.733 334.668 500.405 334.639C501.077 334.611 501.746 334.74 502.358 335.017L514.734 342.161C515.729 342.731 515.6 343.744 514.458 344.407L502.193 351.476C501.606 351.805 500.951 351.991 500.279 352.02C499.607 352.049 498.938 351.919 498.325 351.642Z" fill="#5793CE"/>
<path d="M517.497 362.688L505.103 355.545C504.108 354.974 504.237 353.962 505.397 353.299L517.662 346.229C518.249 345.901 518.905 345.715 519.576 345.686C520.248 345.657 520.917 345.786 521.53 346.064L533.906 353.207C534.9 353.778 534.771 354.79 533.629 355.453L521.364 362.523C520.778 362.851 520.122 363.038 519.45 363.066C518.778 363.095 518.109 362.966 517.497 362.688Z" fill="#5793CE"/>
<path d="M536.558 373.735L524.164 366.591C523.169 366.021 523.298 365.027 524.458 364.364L536.723 357.276C537.31 356.946 537.967 356.76 538.639 356.735C539.312 356.709 539.981 356.844 540.591 357.128L552.967 364.272C553.961 364.842 553.832 365.837 552.69 366.499L540.425 373.587C539.839 373.917 539.182 374.103 538.509 374.128C537.837 374.154 537.168 374.019 536.558 373.735Z" fill="#5793CE"/>
<path d="M555.673 384.781L543.279 377.601C542.285 377.012 542.414 376.018 543.574 375.355L555.839 368.285C556.426 367.957 557.081 367.77 557.753 367.742C558.425 367.713 559.094 367.842 559.707 368.12L572.082 375.263C573.077 375.834 572.948 376.828 571.806 377.49L559.541 384.579C558.957 384.913 558.303 385.106 557.631 385.141C556.96 385.176 556.289 385.053 555.673 384.781Z" fill="#5793CE"/>
<path d="M574.79 395.827L562.396 388.684C561.401 388.113 561.53 387.101 562.69 386.438L574.955 379.258C575.542 378.929 576.198 378.743 576.869 378.714C577.541 378.686 578.21 378.815 578.823 379.092L591.199 386.236C592.193 386.806 592.064 387.819 590.922 388.482L578.657 395.551C578.079 395.898 577.428 396.103 576.756 396.151C576.084 396.199 575.411 396.088 574.79 395.827Z" fill="#5793CE"/>
<path d="M593.906 406.874L581.512 399.731C580.535 399.16 580.646 398.166 581.806 397.503L594.071 390.415C594.658 390.086 595.314 389.9 595.985 389.871C596.657 389.842 597.326 389.972 597.939 390.249L610.315 397.392C611.309 397.982 611.18 398.976 610.038 399.639L597.773 406.727C597.185 407.052 596.529 407.235 595.857 407.261C595.185 407.286 594.517 407.154 593.906 406.874Z" fill="#5793CE"/>
<path d="M331.677 319.902L295.231 298.859C294.237 298.288 294.347 297.276 295.507 296.613L307.773 289.543C308.359 289.215 309.015 289.028 309.686 289C310.358 288.971 311.027 289.1 311.64 289.377L348.067 310.421C349.062 310.991 348.933 312.004 347.791 312.667L335.526 319.736C334.94 320.058 334.288 320.24 333.621 320.269C332.953 320.298 332.288 320.172 331.677 319.902Z" fill="#5793CE"/>
<path d="M566.521 455.441L530.075 434.49C529.08 433.919 529.209 432.925 530.351 432.262L542.616 425.174C543.204 424.848 543.861 424.665 544.533 424.64C545.204 424.614 545.873 424.747 546.484 425.027L582.948 446.07C583.943 446.641 583.814 447.635 582.672 448.298L570.407 455.386C569.809 455.701 569.146 455.871 568.47 455.88C567.795 455.89 567.127 455.739 566.521 455.441Z" fill="#5793CE"/>
<path d="M490.075 435.686L477.699 428.543C476.705 427.972 476.833 426.978 477.975 426.315L492.579 417.883C493.17 417.556 493.828 417.37 494.503 417.342C495.177 417.313 495.849 417.442 496.465 417.718L508.841 424.861C509.835 425.432 509.706 426.444 508.565 427.107L493.961 435.539C493.371 435.869 492.711 436.055 492.035 436.08C491.36 436.106 490.688 435.971 490.075 435.686Z" fill="#5793CE"/>
<path d="M351.253 355.564L331.492 344.149C330.498 343.578 330.627 342.566 331.769 341.903L346.391 333.471C346.978 333.142 347.633 332.956 348.305 332.927C348.977 332.898 349.646 333.028 350.259 333.305L370.056 344.738C371.051 345.309 370.922 346.321 369.78 346.984L355.176 355.416C354.581 355.752 353.915 355.941 353.232 355.967C352.55 355.993 351.871 355.854 351.253 355.564Z" fill="#5793CE"/>
<path d="M471.659 425.064L451.861 413.631C450.867 413.06 450.996 412.066 452.137 411.403L466.76 402.971C467.346 402.642 468.002 402.456 468.674 402.427C469.346 402.398 470.015 402.528 470.627 402.805L490.425 414.238C491.419 414.809 491.29 415.803 490.148 416.466L475.544 424.898C474.954 425.225 474.296 425.411 473.621 425.439C472.947 425.468 472.275 425.34 471.659 425.064Z" fill="#5793CE"/>
<path d="M378.841 371.489L359.117 360.056C358.122 359.485 358.251 358.491 359.393 357.828L373.997 349.396C374.588 349.068 375.246 348.883 375.921 348.854C376.595 348.826 377.267 348.954 377.883 349.23L397.681 360.663C398.675 361.234 398.546 362.228 397.404 362.891L382.782 371.323C382.186 371.664 381.517 371.856 380.831 371.885C380.146 371.914 379.463 371.778 378.841 371.489Z" fill="#5793CE"/>
<path d="M377.939 349.304L464.016 399.013C465.084 399.62 465.084 400.614 464.016 401.24L449.117 409.838C448.517 410.138 447.855 410.294 447.184 410.294C446.512 410.294 445.85 410.138 445.25 409.838L359.172 360.129L377.939 349.304Z" fill="#5793CE"/>
<path d="M543.501 455.699L557.294 463.652C558.105 464.131 558.013 464.941 557.073 465.493L551.088 468.936C550.605 469.208 550.065 469.362 549.511 469.384C548.957 469.407 548.405 469.297 547.902 469.065L534.071 461.111C533.243 460.651 533.353 459.823 534.292 459.27L540.278 455.809C540.769 455.539 541.316 455.389 541.876 455.37C542.436 455.351 542.992 455.463 543.501 455.699Z" fill="#5793CE"/>
<path d="M524.237 444.579L538.012 452.532C538.841 453.011 538.731 453.821 537.791 454.373L531.806 457.816C531.327 458.088 530.789 458.242 530.238 458.264C529.687 458.286 529.139 458.177 528.639 457.945L514.845 449.991C514.034 449.513 514.127 448.703 515.066 448.15L521.051 444.708C521.534 444.435 522.075 444.282 522.629 444.259C523.182 444.237 523.734 444.346 524.237 444.579Z" fill="#5793CE"/>
<path d="M505.121 433.551L518.896 441.504C519.725 441.964 519.614 442.793 518.675 443.345L512.69 446.806C512.208 447.07 511.671 447.219 511.121 447.241C510.572 447.264 510.025 447.159 509.522 446.935L495.729 438.982C494.918 438.503 495.01 437.693 495.95 437.141L501.935 433.698C502.416 433.423 502.956 433.266 503.51 433.24C504.064 433.215 504.616 433.321 505.121 433.551Z" fill="#5793CE"/>
<path d="M534.79 438.485L548.583 446.438C549.394 446.917 549.283 447.727 548.344 448.279L542.377 451.722C541.894 451.994 541.354 452.148 540.8 452.17C540.246 452.193 539.694 452.083 539.191 451.851L525.397 443.898C524.587 443.419 524.698 442.609 525.637 442.057L531.604 438.614C532.088 438.346 532.628 438.194 533.181 438.172C533.735 438.15 534.285 438.257 534.79 438.485Z" fill="#5793CE"/>
<path d="M610.296 223.191L507.331 163.762L508.657 157.061L611.622 216.508L610.296 223.191Z" fill="#D4ECFF"/>
<path d="M573.427 234.477L501.548 192.998L502.874 186.315L574.735 227.794L573.427 234.477Z" fill="#D4ECFF"/>
<path d="M566.613 214.281L504.439 178.38L505.765 171.697L567.939 207.579L566.613 214.281Z" fill="white"/>
<path d="M607.405 237.809L576.318 219.859L577.644 213.176L608.731 231.126L607.405 237.809Z" fill="#FF2C9C"/>
<path d="M496.355 105.382L465.268 87.4318L466.594 80.7303L497.681 98.6807L496.355 105.382Z" fill="#D4ECFF"/>
<path d="M492.985 120.939L461.898 102.989L463.224 96.2874L494.311 114.238L492.985 120.939Z" fill="white"/>
<path d="M645.582 336.638L614.495 318.687L615.821 312.004L646.908 329.954L645.582 336.638Z" fill="#D4ECFF"/>
<path d="M486.244 152.034L455.158 134.084L456.484 127.401L487.57 145.333L486.244 152.034Z" fill="#D4ECFF"/>
<path d="M553.427 156.858C553.199 157.354 552.869 157.796 552.459 158.156C552.049 158.516 551.567 158.785 551.046 158.947C550.525 159.108 549.976 159.158 549.434 159.093C548.892 159.028 548.37 158.85 547.902 158.57C546.887 157.969 546.124 157.02 545.755 155.9C545.386 154.779 545.436 153.563 545.894 152.476C546.12 151.979 546.449 151.535 546.858 151.173C547.268 150.812 547.749 150.54 548.27 150.377C548.791 150.214 549.341 150.162 549.884 150.226C550.427 150.289 550.95 150.466 551.419 150.746C552.436 151.351 553.199 152.303 553.568 153.426C553.937 154.55 553.887 155.769 553.427 156.858Z" fill="#FF2C9C"/>
<path d="M566.815 164.572C566.589 165.069 566.261 165.513 565.851 165.875C565.442 166.237 564.961 166.508 564.44 166.672C563.918 166.835 563.368 166.886 562.826 166.823C562.283 166.759 561.76 166.582 561.29 166.303C560.257 165.709 559.475 164.759 559.092 163.63C558.709 162.502 558.75 161.272 559.209 160.172C559.437 159.676 559.767 159.234 560.177 158.874C560.587 158.515 561.068 158.245 561.59 158.084C562.111 157.922 562.66 157.872 563.202 157.937C563.744 158.002 564.266 158.18 564.734 158.46C565.769 159.047 566.553 159.994 566.937 161.121C567.32 162.247 567.277 163.475 566.815 164.572Z" fill="white"/>
<path d="M580.204 172.305C579.978 172.802 579.649 173.246 579.24 173.608C578.831 173.969 578.35 174.241 577.828 174.404C577.307 174.567 576.757 174.619 576.214 174.555C575.672 174.492 575.148 174.315 574.679 174.035C573.663 173.43 572.901 172.477 572.535 171.353C572.169 170.228 572.224 169.01 572.69 167.923C572.916 167.425 573.244 166.981 573.654 166.619C574.064 166.258 574.546 165.987 575.068 165.826C575.59 165.664 576.14 165.614 576.683 165.681C577.225 165.747 577.747 165.928 578.215 166.211C579.23 166.812 579.991 167.762 580.357 168.883C580.723 170.005 580.668 171.22 580.204 172.305Z" fill="#D4ECFF"/>
<path d="M593.593 180.037C593.366 180.534 593.038 180.978 592.629 181.34C592.219 181.702 591.738 181.973 591.217 182.136C590.696 182.3 590.146 182.351 589.603 182.288C589.06 182.224 588.537 182.047 588.068 181.768C587.048 181.166 586.283 180.214 585.913 179.089C585.544 177.965 585.596 176.744 586.06 175.655C586.286 175.158 586.614 174.713 587.024 174.352C587.434 173.99 587.916 173.72 588.438 173.558C588.96 173.396 589.51 173.347 590.053 173.413C590.595 173.48 591.118 173.66 591.585 173.943C592.606 174.539 593.374 175.487 593.743 176.61C594.113 177.732 594.059 178.951 593.593 180.037Z" fill="#FF2C9C"/>
<path d="M370.995 458.589L285.636 409.322C283.168 407.886 283.463 405.383 286.336 403.799L337.901 374.085C339.375 373.263 341.02 372.799 342.706 372.729C344.391 372.658 346.07 372.984 347.607 373.68L432.948 422.946C435.434 424.382 435.121 426.886 432.266 428.469L380.701 458.184C379.227 459.005 377.582 459.47 375.896 459.54C374.211 459.61 372.532 459.285 370.995 458.589Z" fill="white"/>
<g opacity="0.3">
<mask id="mask0_132_2619" style="mask-type:luminance" maskUnits="userSpaceOnUse" x="486" y="32" width="210" height="327">
<path d="M602.782 339.417L644.661 168.53L486.447 74.7837L577.755 32.6971L695.232 77.9872C695.232 77.9872 695.95 284.922 695.232 287.003C694.514 289.083 651.714 358.509 651.714 358.509L602.782 339.417Z" fill="white"/>
</mask>
<g mask="url(#mask0_132_2619)">
<path d="M555.968 239.816C561.843 243.204 561.843 248.727 555.968 252.114L456.005 309.813C455.095 310.267 454.093 310.503 453.076 310.503C452.06 310.503 451.058 310.267 450.148 309.813C449.816 309.672 449.533 309.436 449.334 309.135C449.134 308.833 449.028 308.48 449.028 308.119C449.028 307.758 449.134 307.405 449.334 307.104C449.533 306.803 449.816 306.567 450.148 306.426L550.112 248.745C552.764 247.217 552.764 244.713 550.112 243.222L540.425 237.699C541.493 236.079 542.469 234.385 543.426 232.673L555.968 239.816Z" fill="#D4ECFF"/>
<path d="M414.366 285.787L514.311 228.107C517.614 226.427 521.268 225.552 524.974 225.552C528.68 225.552 532.334 226.427 535.637 228.107L543.39 232.581C542.433 234.293 541.456 235.987 540.388 237.607L529.781 231.476C528.291 230.722 526.644 230.329 524.974 230.329C523.304 230.329 521.657 230.722 520.167 231.476L420.259 289.175C419.35 289.629 418.347 289.865 417.331 289.865C416.315 289.865 415.312 289.629 414.403 289.175C414.069 289.037 413.783 288.804 413.581 288.505C413.378 288.206 413.268 287.854 413.264 287.493C413.26 287.132 413.363 286.778 413.559 286.475C413.754 286.171 414.035 285.932 414.366 285.787Z" fill="#5793CE"/>
<path d="M413.205 287.61L413.187 147.1L517.939 88.7389L532.58 87.7632L546.742 96.9317L555.434 104.498L453.39 266.272L420.075 285.916L413.205 287.61Z" fill="#5793CE"/>
<path d="M560.369 105.585V245.855L450.406 308.727L448.951 308.138V167.665L560.369 105.585Z" fill="#D4ECFF"/>
<path d="M498.528 106.781L520.369 94.2253C521.81 93.6129 523.366 93.3204 524.93 93.3681C526.495 93.4157 528.03 93.8024 529.43 94.5014L549.688 106.211C550.319 106.486 550.841 106.962 551.174 107.565C551.507 108.167 551.632 108.862 551.53 109.543L496.281 142.535L452.045 169.709L420.627 151.482L498.528 106.781Z" fill="white"/>
<path d="M456.005 169.377L555.968 111.697C561.843 108.309 561.843 102.786 555.968 99.3802L535.71 87.6895C532.407 86.0097 528.753 85.134 525.047 85.134C521.341 85.134 517.687 86.0097 514.384 87.6895L414.365 145.315C414.033 145.456 413.75 145.692 413.551 145.993C413.352 146.294 413.246 146.647 413.246 147.008C413.246 147.369 413.352 147.722 413.551 148.024C413.75 148.325 414.033 148.561 414.365 148.702C415.275 149.156 416.277 149.392 417.294 149.392C418.31 149.392 419.312 149.156 420.222 148.702L520.167 91.0034C521.657 90.2495 523.303 89.8567 524.973 89.8567C526.643 89.8567 528.29 90.2495 529.78 91.0034L550.038 102.713C552.69 104.241 552.69 106.726 550.038 108.236L450.167 165.953C448.546 166.892 448.546 168.402 450.167 169.322C451.067 169.79 452.065 170.039 453.079 170.048C454.093 170.058 455.096 169.828 456.005 169.377Z" fill="#D4ECFF"/>
<path d="M482.064 235.839L533.998 205.849V153.802L482.064 183.774V235.839Z" fill="white"/>
<path d="M414.366 148.702C415.275 149.156 416.278 149.392 417.294 149.392C418.31 149.392 419.313 149.156 420.222 148.702L520.167 91.0034C521.657 90.2495 523.304 89.8567 524.974 89.8567C526.644 89.8567 528.29 90.2495 529.78 91.0034L550.038 102.713C551.769 103.707 552.359 105.124 551.88 106.395C551.491 105.591 550.842 104.942 550.038 104.554L529.78 92.8444C528.29 92.0906 526.644 91.6977 524.974 91.6977C523.304 91.6977 521.657 92.0906 520.167 92.8444L420.259 150.543C419.352 151.005 418.349 151.246 417.331 151.246C416.313 151.246 415.309 151.005 414.403 150.543C413.187 149.844 412.892 148.702 413.519 147.929C413.75 148.237 414.038 148.499 414.366 148.702Z" fill="white"/>
<path d="M450.149 169.377C451.055 169.84 452.059 170.081 453.077 170.081C454.095 170.081 455.098 169.84 456.005 169.377L555.968 111.697C557.024 111.191 557.956 110.461 558.7 109.558C559.445 108.655 559.983 107.601 560.278 106.468C560.738 108.991 559.302 111.623 555.968 113.556L456.005 171.218C455.098 171.681 454.095 171.922 453.077 171.922C452.059 171.922 451.055 171.681 450.149 171.218C448.933 170.519 448.638 169.377 449.265 168.604C449.501 168.921 449.803 169.185 450.149 169.377Z" fill="white"/>
<path d="M601.917 266.953C607.792 270.341 607.792 275.864 601.917 279.252L501.972 336.95C501.062 337.404 500.06 337.64 499.044 337.64C498.027 337.64 497.025 337.404 496.115 336.95C495.783 336.809 495.5 336.573 495.301 336.272C495.102 335.971 494.996 335.618 494.996 335.257C494.996 334.896 495.102 334.543 495.301 334.241C495.5 333.94 495.783 333.704 496.115 333.563L596.06 275.883C598.712 274.354 598.712 271.851 596.06 270.359L586.373 264.836C587.442 263.216 588.418 261.522 589.375 259.81L601.917 266.953Z" fill="#FF2C9C"/>
<path d="M460.406 312.98L560.351 255.299C563.657 253.63 567.31 252.76 571.014 252.76C574.718 252.76 578.371 253.63 581.677 255.299L589.32 259.773C588.362 261.485 587.478 263.179 586.318 264.799L575.71 258.687C574.223 257.924 572.575 257.527 570.904 257.527C569.232 257.527 567.584 257.924 566.097 258.687L466.152 316.367C465.245 316.83 464.242 317.071 463.224 317.071C462.206 317.071 461.202 316.83 460.296 316.367C459.968 316.215 459.692 315.97 459.502 315.662C459.313 315.355 459.218 314.998 459.229 314.637C459.241 314.276 459.359 313.926 459.568 313.631C459.778 313.337 460.069 313.11 460.406 312.98Z" fill="#D3008D"/>
<path d="M459.154 314.802L459.136 174.293L563.887 115.931L578.528 114.956L592.69 124.124L601.383 131.691L499.338 293.483L466.023 313.109L459.154 314.802Z" fill="#176626"/>
<path d="M497.883 332.55L466.576 314.471V178.693L498.859 193.679L497.883 332.55Z" fill="#E573B5"/>
<path d="M606.318 132.777V273.047L496.355 335.919L494.9 335.349V194.857L606.318 132.777Z" fill="#28A745"/>
<path d="M544.476 133.937L566.336 121.399C567.771 120.78 569.324 120.481 570.886 120.526C572.448 120.57 573.982 120.957 575.379 121.657L595.637 133.366C596.271 133.637 596.798 134.112 597.131 134.716C597.465 135.319 597.587 136.017 597.478 136.699L542.23 169.69L497.994 196.993L466.576 178.785L544.476 133.937Z" fill="white"/>
<path d="M498.859 192.667V337.687C497.902 337.691 496.959 337.457 496.115 337.006C495.787 336.858 495.502 336.628 495.289 336.338C495.076 336.047 494.942 335.706 494.9 335.349V194.857L498.859 192.667Z" fill="#D3008D"/>
<path d="M494.9 196.68V194.894L495.434 195.649L494.9 196.68Z" fill="white"/>
<path d="M501.972 196.533L601.917 138.834C607.792 135.447 607.792 129.923 601.917 126.536L581.659 114.827C578.354 113.153 574.701 112.28 570.996 112.28C567.291 112.28 563.638 113.153 560.333 114.827L460.406 172.507C460.074 172.649 459.791 172.885 459.592 173.186C459.393 173.487 459.287 173.84 459.287 174.201C459.287 174.562 459.393 174.915 459.592 175.216C459.791 175.517 460.074 175.753 460.406 175.895C461.316 176.348 462.318 176.585 463.335 176.585C464.351 176.585 465.353 176.348 466.263 175.895L566.153 118.196C567.643 117.442 569.289 117.049 570.959 117.049C572.629 117.049 574.276 117.442 575.766 118.196L596.024 129.905C598.676 131.433 598.676 133.937 596.024 135.428L496.079 193.108C495.747 193.25 495.463 193.486 495.264 193.787C495.065 194.088 494.959 194.441 494.959 194.802C494.959 195.163 495.065 195.516 495.264 195.817C495.463 196.119 495.747 196.355 496.079 196.496C496.99 196.962 497.998 197.207 499.021 197.214C500.044 197.22 501.055 196.987 501.972 196.533Z" fill="#28A745"/>
<path d="M528.012 263.032L579.946 233.06V180.994L528.012 210.985V263.032Z" fill="white"/>
<path d="M460.407 175.895C461.316 176.348 462.318 176.585 463.335 176.585C464.351 176.585 465.353 176.348 466.263 175.895L566.153 118.196C567.643 117.442 569.289 117.049 570.959 117.049C572.629 117.049 574.276 117.442 575.766 118.196L596.024 129.905C597.755 130.918 598.344 132.317 597.865 133.587C597.483 132.779 596.832 132.128 596.024 131.746L575.766 120.037C574.276 119.283 572.629 118.89 570.959 118.89C569.289 118.89 567.643 119.283 566.153 120.037L466.208 177.736C465.301 178.198 464.297 178.439 463.279 178.439C462.262 178.439 461.258 178.198 460.351 177.736C459.136 177.036 458.841 175.895 459.467 175.121C459.726 175.439 460.045 175.702 460.407 175.895Z" fill="white"/>
<path d="M496.115 196.533C497.025 196.987 498.027 197.223 499.043 197.223C500.06 197.223 501.062 196.987 501.972 196.533L601.917 138.834C602.972 138.328 603.904 137.598 604.649 136.695C605.393 135.792 605.931 134.738 606.226 133.605C606.686 136.128 605.25 138.76 601.917 140.694L501.972 198.374C501.065 198.836 500.061 199.077 499.043 199.077C498.025 199.077 497.022 198.836 496.115 198.374C494.881 197.674 494.587 196.533 495.231 195.76C495.465 196.08 495.767 196.344 496.115 196.533Z" fill="white"/>
<path d="M649.136 296.079C655.011 299.466 655.011 304.99 649.136 308.377L549.173 366.076C548.263 366.53 547.261 366.766 546.244 366.766C545.228 366.766 544.225 366.53 543.316 366.076C542.984 365.934 542.701 365.698 542.502 365.397C542.302 365.096 542.196 364.743 542.196 364.382C542.196 364.021 542.302 363.668 542.502 363.367C542.701 363.066 542.984 362.83 543.316 362.688L643.28 305.008C645.931 303.48 645.931 300.976 643.28 299.485L633.593 293.962C634.661 292.36 635.637 290.666 636.594 288.954L649.136 296.079Z" fill="#D4ECFF"/>
<path d="M507.571 342.05L607.516 284.37C610.819 282.69 614.472 281.814 618.179 281.814C621.885 281.814 625.538 282.69 628.842 284.37L636.595 288.843C635.637 290.556 634.661 292.249 633.593 293.851L622.985 287.739C621.495 286.985 619.849 286.592 618.179 286.592C616.509 286.592 614.862 286.985 613.372 287.739L513.427 345.438C512.518 345.891 511.515 346.128 510.499 346.128C509.482 346.128 508.48 345.891 507.571 345.438C507.238 345.296 506.955 345.06 506.756 344.759C506.557 344.458 506.451 344.105 506.451 343.744C506.451 343.383 506.557 343.03 506.756 342.729C506.955 342.428 507.238 342.192 507.571 342.05Z" fill="#5793CE"/>
<path d="M506.373 343.854L506.355 203.363L611.107 144.983L625.748 144.026L639.91 153.194L648.602 160.761L546.558 322.535L513.243 342.179L506.373 343.854Z" fill="#5793CE"/>
<path d="M545.103 361.602L513.795 343.541V207.745L546.06 222.75L545.103 361.602Z" fill="#79B1E0"/>
<path d="M653.537 161.847V302.118L543.574 364.99L542.119 364.4V223.928L653.537 161.847Z" fill="#D4ECFF"/>
<path d="M591.696 163.007L613.537 150.451C614.977 149.834 616.533 149.539 618.098 149.586C619.664 149.634 621.2 150.024 622.598 150.727L642.856 162.436C643.487 162.712 644.009 163.188 644.342 163.79C644.675 164.393 644.8 165.088 644.698 165.769L589.449 198.761L545.103 225.971L513.813 207.745L591.696 163.007Z" fill="white"/>
<path d="M546.079 221.719V366.757C545.117 366.752 544.17 366.519 543.316 366.076C542.988 365.924 542.706 365.69 542.496 365.397C542.286 365.103 542.156 364.76 542.119 364.4V223.928L546.079 221.719Z" fill="#5793CE"/>
<path d="M506.355 205.112V203.363H506.907L507.092 204.56L506.355 205.112Z" fill="white"/>
<path d="M542.119 225.751V223.946L542.653 224.72L542.119 225.751Z" fill="white"/>
<path d="M549.173 225.585L649.136 167.904C655.011 164.517 655.011 158.994 649.136 155.588L628.878 143.897C625.575 142.217 621.921 141.342 618.215 141.342C614.509 141.342 610.855 142.217 607.552 143.897L507.607 201.577C507.275 201.719 506.992 201.955 506.793 202.256C506.593 202.557 506.487 202.91 506.487 203.271C506.487 203.632 506.593 203.985 506.793 204.286C506.992 204.587 507.275 204.823 507.607 204.965C508.517 205.419 509.519 205.655 510.535 205.655C511.552 205.655 512.554 205.419 513.464 204.965L613.372 147.285C614.862 146.531 616.508 146.138 618.178 146.138C619.848 146.138 621.495 146.531 622.985 147.285L643.243 158.994C645.895 160.522 645.895 163.007 643.243 164.517L543.279 222.216C542.953 222.36 542.675 222.596 542.48 222.895C542.285 223.194 542.181 223.543 542.181 223.9C542.181 224.257 542.285 224.607 542.48 224.906C542.675 225.205 542.953 225.441 543.279 225.585C544.191 226.053 545.201 226.298 546.226 226.298C547.251 226.298 548.261 226.053 549.173 225.585Z" fill="#D4ECFF"/>
<path d="M575.231 292.102L627.165 262.111V210.065L575.231 240.037V292.102Z" fill="white"/>
<path d="M507.57 204.965C508.48 205.419 509.482 205.655 510.499 205.655C511.515 205.655 512.518 205.419 513.427 204.965L613.372 147.285C614.862 146.531 616.509 146.138 618.179 146.138C619.849 146.138 621.495 146.531 622.985 147.285L643.243 158.994C644.974 159.988 645.563 161.406 645.085 162.676C644.684 161.881 644.038 161.236 643.243 160.835L622.985 149.144C621.498 148.382 619.85 147.984 618.179 147.984C616.507 147.984 614.859 148.382 613.372 149.144L513.427 206.824C512.52 207.287 511.517 207.528 510.499 207.528C509.481 207.528 508.477 207.287 507.57 206.824C506.355 206.125 506.06 204.983 506.687 204.21C506.931 204.515 507.231 204.771 507.57 204.965Z" fill="white"/>
<path d="M543.279 225.585C544.186 226.047 545.19 226.288 546.207 226.288C547.225 226.288 548.229 226.047 549.136 225.585L649.136 167.904C650.191 167.399 651.124 166.669 651.868 165.766C652.612 164.863 653.151 163.808 653.445 162.676C653.906 165.198 652.469 167.831 649.136 169.764L549.172 227.444C548.266 227.906 547.262 228.147 546.244 228.147C545.226 228.147 544.223 227.906 543.316 227.444C542.101 226.745 541.806 225.603 542.432 224.83C542.66 225.137 542.948 225.394 543.279 225.585Z" fill="white"/>
</g>
</g>
<mask id="mask1_132_2619" style="mask-type:luminance" maskUnits="userSpaceOnUse" x="292" y="74" width="359" height="338">
<path d="M601.512 339.417L643.39 168.53L485.176 74.7837L292.266 146.493L440.296 339.62C440.296 339.62 562.525 409.249 561.843 411.329C561.162 413.41 650.481 358.509 650.481 358.509L601.512 339.417Z" fill="white"/>
</mask>
<g mask="url(#mask1_132_2619)">
<path d="M554.974 236.723C560.849 240.111 560.849 245.634 554.974 249.021L455.029 306.72C454.12 307.174 453.117 307.41 452.101 307.41C451.084 307.41 450.082 307.174 449.173 306.72C448.84 306.579 448.557 306.343 448.358 306.042C448.159 305.74 448.053 305.387 448.053 305.026C448.053 304.665 448.159 304.312 448.358 304.011C448.557 303.71 448.84 303.474 449.173 303.333L549.118 245.652C551.77 244.124 551.77 241.62 549.118 240.129L539.431 234.606C540.517 232.986 541.493 231.292 542.451 229.58L554.974 236.723Z" fill="#D4ECFF"/>
<path d="M413.408 282.694L513.372 225.014C516.678 223.344 520.331 222.474 524.035 222.474C527.739 222.474 531.392 223.344 534.698 225.014L542.451 229.488C541.493 231.2 540.517 232.894 539.431 234.514L528.842 228.383C527.351 227.629 525.705 227.236 524.035 227.236C522.365 227.236 520.718 227.629 519.228 228.383L419.265 286.082C418.358 286.544 417.355 286.785 416.337 286.785C415.319 286.785 414.315 286.544 413.408 286.082C413.076 285.94 412.793 285.704 412.594 285.403C412.395 285.102 412.289 284.749 412.289 284.388C412.289 284.027 412.395 283.674 412.594 283.373C412.793 283.072 413.076 282.836 413.408 282.694Z" fill="#5793CE"/>
<path d="M412.211 284.517V144.007L516.945 85.6459L531.586 84.6702L545.766 93.8386L554.44 101.405L452.396 263.179L419.081 282.823L412.211 284.517Z" fill="#5793CE"/>
<path d="M450.959 302.246L419.651 284.186V148.408L451.917 163.394L450.959 302.246Z" fill="#79B1E0"/>
<path d="M559.376 102.492V242.762L449.431 305.634L447.958 305.045V164.572L559.376 102.492Z" fill="#D4ECFF"/>
<path d="M497.534 103.651L519.339 91.1138C520.773 90.494 522.326 90.1959 523.889 90.2404C525.451 90.285 526.984 90.6711 528.381 91.3716L548.805 103.099C549.441 103.367 549.969 103.842 550.304 104.446C550.638 105.051 550.758 105.75 550.646 106.431L495.398 139.405L451.051 166.616L419.744 148.408L497.534 103.651Z" fill="white"/>
<path d="M451.917 162.363V307.457C450.96 307.461 450.017 307.227 449.173 306.775C448.846 306.625 448.563 306.394 448.351 306.104C448.138 305.814 448.003 305.475 447.958 305.118V164.572L451.917 162.363Z" fill="#5793CE"/>
<path d="M412.211 145.756V144.007H412.764L412.93 145.204L412.211 145.756Z" fill="white"/>
<path d="M447.958 166.395V164.609L448.51 165.364L447.958 166.395Z" fill="white"/>
<path d="M455.029 166.247L554.974 108.622C560.849 105.235 560.849 99.7116 554.974 96.3241L534.716 84.6149C531.413 82.9351 527.759 82.0594 524.053 82.0594C520.347 82.0594 516.694 82.9351 513.39 84.6149L413.408 142.222C413.076 142.363 412.793 142.599 412.594 142.9C412.395 143.201 412.289 143.554 412.289 143.915C412.289 144.276 412.395 144.629 412.594 144.931C412.793 145.232 413.076 145.468 413.408 145.609C414.318 146.063 415.32 146.299 416.337 146.299C417.353 146.299 418.355 146.063 419.265 145.609L519.228 87.9104C520.718 87.1566 522.365 86.7637 524.035 86.7637C525.705 86.7637 527.351 87.1566 528.842 87.9104L549.099 99.6196C551.751 101.148 551.751 103.651 549.099 105.143L449.173 162.86C448.841 163.001 448.557 163.237 448.358 163.539C448.159 163.84 448.053 164.193 448.053 164.554C448.053 164.915 448.159 165.268 448.358 165.569C448.557 165.87 448.841 166.106 449.173 166.247C450.082 166.701 451.085 166.937 452.101 166.937C453.117 166.937 454.12 166.701 455.029 166.247Z" fill="#D4ECFF"/>
<path d="M481.07 232.746L533.004 202.774V150.709L481.07 180.7V232.746Z" fill="white"/>
<path d="M413.408 145.609C414.318 146.063 415.32 146.299 416.337 146.299C417.353 146.299 418.355 146.063 419.265 145.609L519.228 87.9105C520.718 87.1566 522.365 86.7638 524.035 86.7638C525.705 86.7638 527.351 87.1566 528.841 87.9105L549.099 99.6196C550.83 100.632 551.438 102.031 550.941 103.302C550.558 102.494 549.908 101.843 549.099 101.461L528.841 89.7515C527.351 88.9977 525.705 88.6049 524.035 88.6049C522.365 88.6049 520.718 88.9977 519.228 89.7515L419.265 147.45C418.358 147.913 417.355 148.154 416.337 148.154C415.319 148.154 414.315 147.913 413.408 147.45C412.193 146.751 411.898 145.609 412.524 144.836C412.767 145.148 413.067 145.41 413.408 145.609Z" fill="white"/>
<path d="M449.173 166.247C450.082 166.701 451.085 166.937 452.101 166.937C453.117 166.937 454.12 166.701 455.029 166.247L554.974 108.622C556.032 108.12 556.966 107.391 557.711 106.487C558.455 105.584 558.992 104.528 559.284 103.394C559.762 105.916 558.326 108.549 554.974 110.482L455.029 168.088C454.122 168.551 453.119 168.792 452.101 168.792C451.083 168.792 450.08 168.551 449.173 168.088C447.939 167.389 447.663 166.247 448.289 165.474C448.531 165.786 448.832 166.048 449.173 166.247Z" fill="white"/>
<path d="M600.923 264.67C606.797 268.076 606.797 273.581 600.923 276.987L500.922 334.667C500.015 335.13 499.012 335.371 497.994 335.371C496.976 335.371 495.973 335.13 495.066 334.667C494.739 334.523 494.461 334.287 494.266 333.988C494.071 333.689 493.967 333.34 493.967 332.983C493.967 332.626 494.071 332.276 494.266 331.977C494.461 331.678 494.739 331.442 495.066 331.298L595.011 273.6C597.663 272.071 597.663 269.586 595.011 268.076L585.324 262.553C586.41 260.933 587.387 259.258 588.344 257.527L600.923 264.67Z" fill="#176626"/>
<path d="M459.375 310.66L559.32 252.961C562.627 251.291 566.279 250.421 569.983 250.421C573.688 250.421 577.34 251.291 580.647 252.961L588.4 257.435C587.442 259.166 586.466 260.841 585.379 262.461L574.79 256.349C573.3 255.595 571.653 255.202 569.983 255.202C568.313 255.202 566.667 255.595 565.177 256.349L465.232 314.029C464.325 314.491 463.322 314.732 462.304 314.732C461.286 314.732 460.282 314.491 459.375 314.029C459.049 313.885 458.771 313.649 458.576 313.35C458.381 313.051 458.277 312.702 458.277 312.345C458.277 311.988 458.381 311.638 458.576 311.339C458.771 311.04 459.049 310.804 459.375 310.66Z" fill="#176626"/>
<path d="M458.16 312.464V171.973L562.893 113.593L577.552 112.636L591.714 121.804L600.407 129.371L498.344 291.145L465.029 310.771L458.16 312.464Z" fill="#176626"/>
<path d="M496.908 330.212L465.6 312.133V176.355L497.865 191.359L496.908 330.212Z" fill="#66CC99"/>
<path d="M605.324 130.457V270.727L495.379 333.6L493.906 333.01V192.538L605.324 130.457Z" fill="#28A745"/>
<path d="M543.482 131.617L565.379 119.061C566.815 118.444 568.369 118.149 569.931 118.197C571.493 118.245 573.026 118.634 574.422 119.337L594.68 131.046C596.263 131.949 596.89 133.182 596.521 134.36L541.438 167.352L497.074 194.563L465.674 176.355L543.482 131.617Z" fill="white"/>
<path d="M497.865 190.328V335.367C496.908 335.356 495.967 335.116 495.121 334.667C494.793 334.522 494.509 334.292 494.298 334.001C494.088 333.71 493.959 333.368 493.924 333.011V192.538L497.865 190.328Z" fill="#176626"/>
<path d="M458.16 173.722V171.973H458.712L458.878 173.151L458.16 173.722Z" fill="white"/>
<path d="M493.906 194.36V192.556L494.458 193.311L493.906 194.36Z" fill="white"/>
<path d="M500.923 194.195L600.923 136.514C606.798 133.108 606.798 127.585 600.923 124.198L580.665 112.489C577.359 110.819 573.706 109.949 570.002 109.949C566.298 109.949 562.645 110.819 559.339 112.489L459.375 170.187C459.049 170.331 458.771 170.567 458.576 170.866C458.381 171.166 458.277 171.515 458.277 171.872C458.277 172.229 458.381 172.578 458.576 172.877C458.771 173.177 459.049 173.412 459.375 173.556C460.282 174.019 461.286 174.26 462.304 174.26C463.322 174.26 464.325 174.019 465.232 173.556L565.177 115.876C566.667 115.122 568.313 114.729 569.983 114.729C571.653 114.729 573.3 115.122 574.79 115.876L595.048 127.585C597.7 129.113 597.7 131.599 595.048 133.108L495.103 190.807C494.776 190.951 494.498 191.187 494.303 191.486C494.108 191.785 494.004 192.135 494.004 192.492C494.004 192.849 494.108 193.198 494.303 193.497C494.498 193.796 494.776 194.032 495.103 194.176C496.004 194.635 497 194.876 498.011 194.879C499.021 194.883 500.019 194.648 500.923 194.195Z" fill="#28A745"/>
<path d="M527.018 260.694L578.97 230.721V178.675L527.018 208.647V260.694Z" fill="white"/>
<path d="M459.375 173.556C460.282 174.019 461.286 174.26 462.304 174.26C463.322 174.26 464.325 174.019 465.232 173.556L565.177 115.876C566.667 115.122 568.313 114.729 569.983 114.729C571.653 114.729 573.3 115.122 574.79 115.876L595.048 127.585C596.797 128.579 597.387 129.997 596.89 131.267C596.5 130.464 595.851 129.816 595.048 129.426L574.79 117.717C573.3 116.963 571.653 116.57 569.983 116.57C568.313 116.57 566.667 116.963 565.177 117.717L465.232 175.416C464.322 175.87 463.32 176.106 462.304 176.106C461.287 176.106 460.285 175.87 459.375 175.416C458.142 174.698 457.847 173.575 458.491 172.802C458.721 173.12 459.024 173.379 459.375 173.556Z" fill="white"/>
<path d="M495.121 194.195C496.028 194.657 497.032 194.898 498.05 194.898C499.067 194.898 500.071 194.657 500.978 194.195L600.923 136.514C601.979 136.008 602.914 135.278 603.661 134.375C604.408 133.472 604.95 132.418 605.251 131.286C605.711 133.808 604.274 136.422 600.923 138.355L500.922 196.054C500.013 196.508 499.011 196.744 497.994 196.744C496.978 196.744 495.975 196.508 495.066 196.054C493.851 195.336 493.556 194.305 494.182 193.44C494.437 193.757 494.757 194.014 495.121 194.195Z" fill="white"/>
<path d="M648.142 292.986C654.017 296.374 654.017 301.897 648.142 305.284L548.197 362.983C547.288 363.437 546.285 363.673 545.269 363.673C544.252 363.673 543.25 363.437 542.341 362.983C542.008 362.842 541.725 362.606 541.526 362.304C541.327 362.003 541.221 361.65 541.221 361.289C541.221 360.928 541.327 360.575 541.526 360.274C541.725 359.973 542.008 359.737 542.341 359.595L642.286 301.934C644.938 300.405 644.938 297.902 642.286 296.41L632.599 290.887C633.685 289.267 634.661 287.573 635.619 285.861L648.142 292.986Z" fill="#D4ECFF"/>
<path d="M506.576 338.957L606.54 281.277C609.846 279.607 613.498 278.737 617.203 278.737C620.907 278.737 624.559 279.607 627.866 281.277L635.619 285.751C634.661 287.463 633.685 289.157 632.599 290.777L622.009 284.646C620.519 283.892 618.873 283.499 617.203 283.499C615.533 283.499 613.886 283.892 612.396 284.646L512.433 342.437C511.523 342.891 510.521 343.127 509.504 343.127C508.488 343.127 507.486 342.891 506.576 342.437C506.214 342.312 505.901 342.077 505.678 341.765C505.456 341.453 505.337 341.08 505.337 340.697C505.337 340.314 505.456 339.941 505.678 339.629C505.901 339.317 506.214 339.082 506.576 338.957Z" fill="#5793CE"/>
<path d="M505.379 340.78V200.27L610.113 141.909L624.754 140.933L638.934 150.101L647.608 157.668L545.564 319.442L512.249 339.086L505.379 340.78Z" fill="#5793CE"/>
<path d="M544.109 358.509L512.819 340.448V204.67L545.085 219.656L544.109 358.509Z" fill="#79B1E0"/>
<path d="M652.543 158.754V299.025L542.598 361.897L541.125 361.308V220.835L652.543 158.754Z" fill="#D4ECFF"/>
<path d="M590.702 159.914L612.562 147.285C613.999 146.673 615.552 146.38 617.113 146.428C618.675 146.476 620.207 146.862 621.604 147.561L641.862 159.27C642.499 159.538 643.027 160.012 643.361 160.617C643.695 161.221 643.816 161.921 643.704 162.602L588.455 195.594L544.09 222.805L512.69 204.578L590.702 159.914Z" fill="white"/>
<path d="M545.122 218.626V363.664C544.165 363.668 543.222 363.434 542.378 362.983C542.051 362.833 541.768 362.602 541.555 362.312C541.343 362.022 541.207 361.683 541.162 361.326V220.927L545.122 218.626Z" fill="#5793CE"/>
<path d="M505.379 202.019V200.27H505.932L506.098 201.467L505.379 202.019Z" fill="white"/>
<path d="M541.125 222.658V220.872L541.678 221.627L541.125 222.658Z" fill="white"/>
<path d="M548.197 222.51L648.142 164.811C654.017 161.424 654.017 155.901 648.142 152.513L627.884 140.804C624.581 139.124 620.927 138.249 617.221 138.249C613.515 138.249 609.861 139.124 606.558 140.804L506.594 198.484C506.262 198.626 505.979 198.862 505.78 199.163C505.581 199.464 505.475 199.817 505.475 200.178C505.475 200.539 505.581 200.892 505.78 201.193C505.979 201.494 506.262 201.73 506.594 201.872C507.504 202.326 508.506 202.562 509.523 202.562C510.539 202.562 511.541 202.326 512.451 201.872L612.414 144.173C613.904 143.419 615.551 143.026 617.221 143.026C618.891 143.026 620.537 143.419 622.028 144.173L642.285 155.882C644.937 157.41 644.937 159.896 642.285 161.405L542.34 219.086C542.008 219.227 541.725 219.463 541.526 219.764C541.327 220.066 541.221 220.419 541.221 220.78C541.221 221.141 541.327 221.494 541.526 221.795C541.725 222.096 542.008 222.332 542.34 222.473C543.247 222.933 544.248 223.175 545.264 223.182C546.281 223.188 547.285 222.958 548.197 222.51Z" fill="#D4ECFF"/>
<path d="M574.237 289.009L626.171 259.018V206.972L574.237 236.963V289.009Z" fill="#007BFF"/>
<path d="M506.576 201.872C507.486 202.326 508.488 202.562 509.505 202.562C510.521 202.562 511.523 202.326 512.433 201.872L612.396 144.173C613.886 143.419 615.533 143.026 617.203 143.026C618.873 143.026 620.519 143.419 622.009 144.173L642.267 155.882C643.998 156.895 644.588 158.294 644.109 159.564C643.726 158.756 643.076 158.106 642.267 157.723L622.009 146.014C620.519 145.26 618.873 144.868 617.203 144.868C615.533 144.868 613.886 145.26 612.396 146.014L512.433 203.695C511.526 204.157 510.522 204.398 509.505 204.398C508.487 204.398 507.483 204.157 506.576 203.695C505.361 202.995 505.066 201.854 505.692 201.08C505.933 201.399 506.233 201.668 506.576 201.872Z" fill="white"/>
<path d="M542.34 222.51C543.25 222.964 544.252 223.2 545.269 223.2C546.285 223.2 547.287 222.964 548.197 222.51L648.142 164.811C649.197 164.306 650.13 163.576 650.874 162.673C651.618 161.77 652.156 160.715 652.451 159.583C652.93 162.105 651.494 164.738 648.142 166.671L548.197 224.351C547.29 224.813 546.286 225.054 545.269 225.054C544.251 225.054 543.247 224.813 542.34 224.351C541.106 223.652 540.83 222.51 541.456 221.737C541.699 222.049 541.999 222.311 542.34 222.51Z" fill="white"/>
</g>
<path opacity="0.5" d="M692.082 518.552C689.863 517.435 687.413 516.854 684.928 516.854C682.443 516.854 679.993 517.435 677.773 518.552L493.15 625.15C489.209 627.433 489.209 631.133 493.15 633.416C495.37 634.542 497.825 635.128 500.314 635.128C502.803 635.128 505.258 634.542 507.478 633.416L692.082 526.819C696.024 524.536 696.024 520.835 692.082 518.552Z" fill="#173D7A"/>
<path d="M723.63 460.817C723.542 460.673 723.411 460.56 723.256 460.494C723.101 460.428 722.929 460.412 722.764 460.449L711.585 462.86L715.987 470.335L723.538 461.756C723.647 461.627 723.714 461.468 723.73 461.301C723.747 461.133 723.712 460.964 723.63 460.817Z" fill="#D4ECFF"/>
<path d="M719.229 466.34C719.18 465.462 718.923 464.607 718.478 463.848C718.032 463.089 717.412 462.448 716.669 461.977C716.426 461.812 716.147 461.707 715.855 461.672C715.564 461.637 715.268 461.672 714.993 461.774C702.087 461.667 689.395 465.065 678.271 471.606L677.46 472.084L691.328 495.668L695.435 492.962C704.097 487.203 711.399 479.626 716.834 470.759L718.584 467.905C718.809 467.715 718.985 467.473 719.097 467.201C719.209 466.929 719.254 466.633 719.229 466.34Z" fill="#007BFF"/>
<path d="M694.108 489.39C693.903 486.035 692.909 482.776 691.207 479.877C689.504 476.979 687.142 474.523 684.311 472.71C678.933 469.654 674.624 472.194 674.679 478.362C674.884 481.717 675.878 484.976 677.581 487.874C679.283 490.773 681.646 493.229 684.477 495.042C689.854 498.08 694.164 495.557 694.108 489.39Z" fill="#D4ECFF"/>
<path d="M609.007 546.941L691.328 495.668L677.46 472.084L592.617 519.068L609.007 546.941Z" fill="#D4ECFF"/>
<path d="M612.304 539.43C612.056 535.468 610.878 531.62 608.866 528.197C606.853 524.775 604.063 521.874 600.72 519.731C594.366 516.214 589.32 519.178 589.32 526.543C589.567 530.51 590.747 534.363 592.763 537.789C594.778 541.215 597.574 544.117 600.923 546.26C607.258 549.795 612.359 546.794 612.304 539.43Z" fill="#D4ECFF"/>
<path d="M607.607 542.265C607.361 538.303 606.184 534.454 604.171 531.031C602.159 527.608 599.367 524.708 596.024 522.566C589.67 518.884 584.569 521.958 584.624 529.249C584.871 533.216 586.05 537.069 588.066 540.495C590.082 543.921 592.878 546.823 596.226 548.967C602.561 552.557 607.736 549.556 607.607 542.265Z" fill="#D4ECFF"/>
<path d="M587.939 521.786L479.028 585.792L495.417 613.662L604.328 549.656L587.939 521.786Z" fill="#D4ECFF"/>
<path d="M498.694 606.26C498.446 602.298 497.268 598.45 495.255 595.028C493.243 591.605 490.452 588.705 487.11 586.561C480.756 582.879 475.673 585.954 475.728 593.244C475.972 597.21 477.148 601.062 479.161 604.488C481.173 607.915 483.966 610.818 487.312 612.962C493.647 616.552 498.749 613.551 498.694 606.26Z" fill="#D4ECFF"/>
<path d="M494.587 603.867C494.25 601.417 493.373 599.073 492.019 597.004C490.666 594.934 488.869 593.191 486.76 591.9C482.671 589.58 479.577 591.201 479.835 595.582C480.163 598.035 481.037 600.382 482.391 602.453C483.746 604.524 485.547 606.265 487.662 607.549C491.714 609.85 494.826 608.249 494.587 603.867Z" fill="#396CAA"/>
<path d="M613.132 539.025C612.885 535.058 611.706 531.205 609.69 527.779C607.674 524.353 604.878 521.45 601.53 519.307C600.537 518.658 599.425 518.212 598.259 517.994C597.093 517.776 595.895 517.791 594.734 518.037C596.797 515.901 600.259 515.644 603.943 517.816C607.292 519.958 610.088 522.86 612.104 526.287C614.12 529.713 615.299 533.566 615.545 537.534C615.545 541.879 613.703 544.695 610.959 545.487C612.484 543.69 613.262 541.378 613.132 539.025Z" fill="white"/>
<path d="M613.132 539.025C612.885 535.058 611.706 531.205 609.69 527.779C607.674 524.353 604.878 521.451 601.53 519.307C598.362 517.466 595.508 517.374 593.445 518.571L587.276 522.253L590.222 527.261C590.639 530.804 591.787 534.223 593.594 537.3C595.401 540.378 597.828 543.046 600.72 545.137L603.666 550.127L609.836 546.444C611.898 545.248 613.151 542.67 613.132 539.025Z" fill="#007BFF"/>
<path d="M606.963 542.652C606.716 538.685 605.537 534.832 603.521 531.406C601.505 527.98 598.709 525.078 595.361 522.934C589.025 519.252 583.924 522.345 583.979 529.636C584.225 533.601 585.404 537.452 587.42 540.875C589.436 544.298 592.233 547.197 595.582 549.335C601.917 552.944 607.018 549.943 606.963 542.652Z" fill="#D4ECFF"/>
<path d="M489.449 607.181L482.377 595.14L459.302 608.709C457.707 609.649 456.551 611.182 456.085 612.973C455.619 614.764 455.882 616.666 456.815 618.264C457.759 619.855 459.294 621.007 461.085 621.469C462.876 621.932 464.777 621.666 466.373 620.731L489.449 607.181Z" fill="#FFC107"/>
<path d="M490.885 603.977C490.777 602.266 490.268 600.604 489.397 599.126C488.527 597.649 487.321 596.397 485.876 595.472C483.132 593.907 480.941 595.214 480.959 598.344C481.067 600.055 481.577 601.717 482.447 603.195C483.318 604.673 484.524 605.925 485.968 606.85C488.694 608.414 490.904 607.107 490.885 603.977Z" fill="#FFC107"/>
<path d="M516.244 564.616L512.801 562.646C511.612 562.115 510.304 561.909 509.01 562.048C507.716 562.187 506.483 562.667 505.434 563.437L493.556 570.415C492.377 571.199 491.4 572.249 490.702 573.48C490.005 574.712 489.607 576.09 489.541 577.503V583.431C489.501 584.531 489.085 585.584 488.362 586.414L488.804 589.175L485.839 587.482C485.598 587.329 485.405 587.111 485.281 586.854C485.158 586.597 485.109 586.311 485.139 586.027V580.099C485.287 577.16 486.121 574.296 487.577 571.738C489.032 569.181 491.067 566.999 493.519 565.371L505.379 558.411C509.357 556.073 513.095 555.668 515.913 557.27L519.375 559.24C520.563 559.77 521.871 559.976 523.165 559.837C524.459 559.698 525.693 559.219 526.742 558.448L574.587 530.225C574.807 530.056 575.07 529.951 575.346 529.922C575.623 529.893 575.901 529.94 576.152 530.059L579.117 531.753L576.576 532.729C576.239 533.815 575.536 534.752 574.587 535.38L526.705 563.474C522.819 565.812 519.08 566.217 516.244 564.616Z" fill="#007BFF"/>
<path d="M515.784 564.358C514.596 563.828 513.288 563.621 511.994 563.761C510.7 563.9 509.466 564.379 508.417 565.15L496.557 572.127C495.374 572.906 494.392 573.954 493.694 575.187C492.996 576.419 492.602 577.8 492.543 579.215V585.162C492.508 585.931 492.292 586.681 491.911 587.35C491.53 588.019 490.995 588.588 490.351 589.01C489.136 589.728 488.141 589.157 488.141 587.739V581.811C488.292 578.871 489.13 576.007 490.589 573.449C492.047 570.891 494.085 568.711 496.539 567.083L508.288 560.05C512.248 557.712 515.986 557.307 518.823 558.908L522.285 560.878C523.473 561.409 524.781 561.615 526.075 561.476C527.369 561.337 528.603 560.857 529.651 560.087L577.534 531.992C578.749 531.274 579.744 531.845 579.762 533.244C579.733 534.012 579.52 534.762 579.142 535.431C578.764 536.101 578.232 536.67 577.589 537.092L529.707 565.205C525.747 567.525 522.009 567.93 519.173 566.328L515.784 564.358Z" fill="#007BFF"/>
<path d="M492.34 580.191V586.138C492.34 586.138 492.34 586.138 492.34 586.248C492.448 585.896 492.504 585.53 492.506 585.162V579.215C492.488 579.044 492.488 578.871 492.506 578.7C492.39 579.188 492.335 579.689 492.34 580.191Z" fill="#007BFF"/>
<path opacity="0.5" d="M451.198 482.265C471.937 482.265 488.749 472.563 488.749 460.596C488.749 448.628 471.937 438.927 451.198 438.927C430.459 438.927 413.647 448.628 413.647 460.596C413.647 472.563 430.459 482.265 451.198 482.265Z" fill="#173D7A"/>
<path d="M493.905 442.056V430.071H491.714C489.197 426.039 485.667 422.738 481.474 420.498C464.789 410.869 437.736 410.869 421.069 420.498C416.872 422.738 413.335 426.039 410.811 430.071H408.564V442.001C408.564 448.316 412.69 454.668 421.069 459.491C437.736 469.12 464.789 469.12 481.474 459.491C489.743 454.741 493.905 448.371 493.905 442.056Z" fill="#FFC107"/>
<path d="M451.198 454.723C474.785 454.723 493.905 443.686 493.905 430.071C493.905 416.456 474.785 405.419 451.198 405.419C427.611 405.419 408.491 416.456 408.491 430.071C408.491 443.686 427.611 454.723 451.198 454.723Z" fill="#FFC107"/>
<path d="M481.401 447.506C464.716 457.135 437.662 457.135 420.995 447.506C413.003 442.885 408.877 436.902 408.546 430.937C408.178 437.509 412.229 444.155 420.995 449.163C437.662 458.792 464.716 458.792 481.401 449.163C490.075 444.155 494.292 437.509 493.832 430.955C493.555 436.902 489.393 442.885 481.401 447.506Z" fill="white"/>
<path d="M430.609 438.172C430.295 438.04 430.024 437.824 429.826 437.548C429.628 437.272 429.51 436.946 429.485 436.607V420.534C429.485 419.319 431.216 418.325 433.334 418.325C435.452 418.325 437.165 419.319 437.165 420.553V433.864L475.839 429.132C477.92 428.874 479.964 429.648 480.406 430.844C480.848 432.041 479.504 433.219 477.441 433.477L434.126 438.779C433.032 438.922 431.919 438.769 430.903 438.337L430.609 438.172Z" fill="white"/>
<path opacity="0.5" d="M230.443 305.597L198.711 287.279L230.443 268.96L262.174 287.279L230.443 305.597Z" fill="#173D7A"/>
<path d="M262.174 264.026L230.442 282.345V245.708L262.174 227.407V264.026Z" fill="#AD7B00"/>
<path d="M230.443 245.708L198.711 227.407L230.443 209.089L262.174 227.407L230.443 245.708Z" fill="#FFC107"/>
<path d="M230.443 282.345L198.711 264.026V227.407L230.443 245.708V282.345Z" fill="#FFC107"/>
<path d="M219.025 262.553L210.148 257.435V247.18L219.025 252.299V262.553Z" fill="white"/>
<path opacity="0.5" d="M33.0388 633.987L0 614.913L33.0388 595.858L66.0775 614.913L33.0388 633.987Z" fill="#173D7A"/>
<path d="M66.0773 590.722L33.0386 609.777V571.649L66.0773 552.575V590.722Z" fill="#173D7A"/>
<path d="M33.0388 571.649L0 552.575L33.0388 533.52L66.0775 552.575L33.0388 571.649Z" fill="#D4ECFF"/>
<path d="M33.0388 609.777L0 590.722V552.575L33.0388 571.649V609.777Z" fill="#5793CE"/>
<path d="M21.1419 589.175L11.897 583.855V573.177L21.1419 578.516V589.175Z" fill="white"/>
<path opacity="0.5" d="M153.187 589.488L30.074 518.442C29.4432 518.076 28.9196 517.551 28.5556 516.919C28.1916 516.288 28 515.572 28 514.843C28 514.114 28.1916 513.397 28.5556 512.766C28.9196 512.134 29.4432 511.609 30.074 511.243L147.146 443.695L278.086 519.289C278.717 519.652 279.241 520.175 279.606 520.805C279.97 521.436 280.162 522.151 280.162 522.879C280.162 523.607 279.97 524.322 279.606 524.952C279.241 525.583 278.717 526.106 278.086 526.469L168.914 589.488C166.524 590.872 163.812 591.6 161.05 591.6C158.289 591.6 155.576 590.872 153.187 589.488Z" fill="#173D7A"/>
<path d="M149.632 394.428C149.632 386.622 144.107 383.382 137.367 387.34L22.2286 453.618C21.2428 454.253 20.4227 455.113 19.8365 456.128C19.2504 457.143 18.915 458.284 18.8584 459.454C18.8584 461.59 20.3501 462.474 22.2286 461.406L137.367 395.128C140.424 393.287 142.892 394.815 142.892 398.331V411.219C145.12 411.09 147.367 411.09 149.632 411.127V394.428Z" fill="#0096FF"/>
<path d="M22.0997 484.585L137.238 442.646C140.816 440.317 143.794 437.178 145.932 433.484C148.069 429.789 149.305 425.643 149.54 421.381V411.09C147.275 411.09 145.028 411.09 142.8 411.182V425.284C142.697 427.205 142.143 429.074 141.184 430.74C140.224 432.407 138.885 433.824 137.275 434.876L22.1918 476.834C21.2026 477.466 20.3789 478.326 19.7895 479.341C19.2 480.356 18.8619 481.498 18.8032 482.67C18.8032 484.787 20.2581 485.653 22.0997 484.585Z" fill="#0096FF"/>
<path d="M19.687 484.732L159.743 565.757L278.325 495.06L287.736 481.013L286.76 486.002L284.236 472.968L64.107 481.363L25.3224 478.878L19.687 484.732Z" fill="#4593FF"/>
<path d="M24.3278 460.283L24.291 477.515L159.65 555.815L163.315 539.393L24.3278 460.283Z" fill="#86C7FF"/>
<path d="M285.986 467.426L146.151 386.549L20.0737 459.86L19.8159 461.645L159.853 542.652L285.986 467.426Z" fill="#007BFF"/>
<path d="M241.419 508.96L274.292 489.464C275.739 488.384 276.931 487.001 277.784 485.41C278.637 483.819 279.13 482.06 279.227 480.258V477.681C279.322 476.887 279.156 476.084 278.754 475.394C278.352 474.703 277.736 474.162 276.999 473.851L212.321 509.973L159.614 538.381V555.815L241.419 508.96Z" fill="white"/>
<path d="M164.328 539.982L25.3777 459.62L22.4311 457.908L19.7423 456.361C19.1937 457.316 18.89 458.391 18.8583 459.491C18.8185 459.902 18.8857 460.317 19.0535 460.694C19.2213 461.072 19.484 461.399 19.816 461.645L159.78 542.652L164.328 539.982Z" fill="#007BFF"/>
<path d="M157.993 564.745L159.743 565.757L160.074 565.205L158.988 564.34L157.993 564.745Z" fill="white"/>
<path d="M158.048 541.603L159.835 542.634L159.393 541.658L158.048 541.603Z" fill="white"/>
<path d="M162.265 534.643L277.404 468.365C284.181 464.462 289.687 467.647 289.687 475.472V478.049C289.453 482.306 288.219 486.448 286.085 490.139C283.951 493.831 280.977 496.967 277.404 499.295L162.265 565.573C160.424 566.659 158.895 565.776 158.895 563.622C158.956 562.464 159.29 561.337 159.869 560.332C160.449 559.327 161.257 558.474 162.229 557.841L277.367 491.563C278.976 490.514 280.315 489.1 281.275 487.437C282.235 485.773 282.789 483.907 282.892 481.989V479.412C282.892 475.877 280.406 474.441 277.367 476.208L162.229 542.486C160.387 543.554 158.858 542.689 158.858 540.535C158.918 539.353 159.258 538.202 159.85 537.178C160.443 536.153 161.271 535.285 162.265 534.643Z" fill="#0096FF"/>
<path d="M158.859 563.621C158.924 562.46 159.263 561.331 159.849 560.326C160.435 559.321 161.25 558.47 162.229 557.841L277.367 491.562C278.977 490.514 280.316 489.1 281.276 487.437C282.236 485.773 282.789 483.907 282.892 481.989V479.411C282.892 477.092 281.824 475.729 280.222 475.49C280.798 476.326 281.083 477.329 281.032 478.344V480.921C280.929 482.839 280.376 484.705 279.416 486.369C278.456 488.032 277.116 489.446 275.507 490.495L160.369 556.773C159.385 557.405 158.567 558.263 157.981 559.275C157.395 560.286 157.058 561.423 156.999 562.59C156.999 564.229 157.864 565.113 159.08 564.984C158.914 564.55 158.838 564.086 158.859 563.621Z" fill="white"/>
<path d="M158.895 540.479C158.959 539.31 159.298 538.173 159.883 537.159C160.469 536.145 161.285 535.283 162.266 534.643L277.404 468.365C278.52 467.604 279.788 467.095 281.12 466.872C282.453 466.65 283.818 466.719 285.12 467.076C282.855 465.235 279.43 465.088 275.562 467.297L160.424 533.575C159.443 534.219 158.627 535.085 158.041 536.102C157.456 537.118 157.118 538.258 157.054 539.43C157.054 541.069 157.919 541.952 159.153 541.823C158.971 541.399 158.883 540.941 158.895 540.479Z" fill="white"/>
<path d="M105.654 469.028L169.171 432.428L224.273 464.296L160.737 500.897L105.654 469.028Z" fill="white"/>
<path opacity="0.5" d="M262.744 645.99C288.177 660.719 329.411 660.719 354.826 645.99C380.24 631.262 380.259 607.512 354.826 592.839C329.393 578.166 288.159 578.111 262.744 592.839C237.33 607.568 237.312 631.317 262.744 645.99ZM287.625 607.199C299.319 600.461 318.269 600.461 329.982 607.199C341.695 613.938 341.677 624.892 329.982 631.63C318.288 638.368 299.338 638.387 287.625 631.63C275.912 624.873 275.949 613.956 287.625 607.199Z" fill="#173D7A"/>
<path d="M364.457 584.149L341.216 584.499C339.188 581.981 336.685 579.885 333.85 578.331C321.069 570.967 300.995 570.397 287.072 576.619L273.26 563.64L252.008 563.971C253.058 563.29 254.144 562.609 255.286 561.946C284.752 544.898 332.634 544.898 362.248 561.946C367.174 564.708 371.657 568.196 375.544 572.293L364.457 584.149Z" fill="#AD7B00"/>
<path d="M252.045 530.243V563.971L273.297 563.64V529.912L252.045 530.243Z" fill="#AD7B00"/>
<path d="M287.11 542.891V576.619L273.297 563.64V529.912L287.11 542.891Z" fill="#AD7B00"/>
<path d="M341.216 550.789V584.499L310.664 559.682L287.109 576.619V542.891L308.804 532.379C308.804 532.379 338.656 541.584 340.222 541.897C341.787 542.21 341.216 550.789 341.216 550.789Z" fill="#AD7B00"/>
<path d="M364.458 550.421V584.149L341.216 584.499V550.789L364.458 550.421Z" fill="#AD7B00"/>
<path d="M375.581 538.583V572.293L364.458 584.149V550.421L375.581 538.583Z" fill="#AD7B00"/>
<path d="M364.457 550.476L341.216 550.845C339.198 548.316 336.693 546.219 333.85 544.677C321.069 537.313 300.995 536.724 287.072 542.946L273.26 529.967L252.008 530.298C253.058 529.617 254.144 528.936 255.286 528.273C284.752 511.225 332.634 511.225 362.248 528.273C367.171 531.047 371.653 534.541 375.544 538.638L364.457 550.476Z" fill="#FFC107"/>
<path d="M280.111 547.052V578.092L260 573.287C260 573.287 261.179 555.134 261.603 554.656C262.026 554.177 280.111 547.052 280.111 547.052Z" fill="#5793CE"/>
<path d="M295.323 578.092V611.82L293.15 614.14L278.988 605.966C278.988 605.966 281.179 580.191 281.437 579.712C281.695 579.234 295.323 578.092 295.323 578.092Z" fill="#173D7A"/>
<path d="M267.957 569.347L280.111 580.762C269.982 588.77 271.179 600.074 283.795 607.291C287.431 609.338 291.345 610.845 295.415 611.765L282.855 625.15L293.997 635.625C280.435 634.287 267.281 630.23 255.323 623.695C229.927 608.967 226.373 586.561 244.642 569.697L267.957 569.347Z" fill="#396CAA"/>
<path d="M293.905 601.897V635.625L266.336 624.984L233.168 593.355L233.297 557.546L268.38 585.346L293.905 601.897Z" fill="#396CAA"/>
<path d="M267.957 535.619L280.111 547.052C269.982 555.061 271.179 566.346 283.795 573.582C287.435 575.614 291.349 577.114 295.415 578.037L282.855 591.421L293.997 601.897C280.435 600.559 267.281 596.501 255.323 589.967C229.927 575.239 226.373 552.833 244.642 535.969L267.957 535.619Z" fill="#D4ECFF"/>
<path d="M293.979 624.984L305.028 613.183C315.305 613.809 325.968 611.857 333.85 607.291C341.732 602.726 345.341 596.245 343.923 590.078L370.295 589.672L380.443 578.865C389.301 594.091 383.26 611.563 362.248 623.695C346.815 632.606 326.373 636.84 306.152 636.435L293.979 624.984Z" fill="#396CAA"/>
<path d="M306.17 602.707V636.435L384.421 593.097V559.35L373.003 563.971L306.17 602.707Z" fill="#396CAA"/>
<path d="M293.979 591.256V624.984L306.17 636.435V602.707L293.979 591.256Z" fill="#173D7A"/>
<path d="M293.979 591.256L305.028 579.455C315.305 580.081 325.968 578.129 333.85 573.582C341.732 569.034 345.341 562.535 343.923 556.349L370.295 555.944L380.443 545.137C389.301 560.363 383.26 577.835 362.248 589.967C346.815 598.878 326.373 603.112 306.152 602.707L293.979 591.256Z" fill="#5793CE"/>
</g>
<defs>
<clipPath id="clip0_132_2619">
<rect width="737" height="657" fill="white"/>
</clipPath>
</defs>
</svg>
