<svg width="74" height="74" viewBox="0 0 74 74" fill="none" xmlns="http://www.w3.org/2000/svg">
<path d="M21.753 36.4593C20.4135 35.1208 18.2328 35.1208 16.8621 36.4593C15.4914 37.7978 15.5225 39.9767 16.8621 41.3463L31.0364 55.5093C31.7218 56.1942 32.594 56.5366 33.4663 56.5366C34.3386 56.5366 35.242 56.1942 35.8962 55.5093L68.4192 23.0745C69.7588 21.736 69.7588 19.5571 68.4192 18.1875C67.0797 16.849 64.899 16.849 63.5283 18.1875L33.4974 48.1944L21.753 36.4593Z" fill="#20B486"/>
<path d="M73.7467 33.0658C73.5909 31.634 72.3137 30.5756 70.8807 30.7313C69.4477 30.8869 68.3885 32.1631 68.5443 33.595C68.6689 34.6845 68.7 35.7739 68.7 36.8634C68.7 54.2326 54.5568 68.3333 37.205 68.3333C19.822 68.3333 5.70996 54.2014 5.70996 36.8634C5.67881 19.5254 19.7908 5.42461 37.1738 5.42461C43.3732 5.42461 49.3856 7.23001 54.5257 10.6229C55.7406 11.4322 57.3606 11.0898 58.1705 9.87585C58.9805 8.66187 58.6378 7.04324 57.4229 6.23393C51.4105 2.24961 44.4012 0.164062 37.1738 0.164062C16.8937 0.164062 0.414062 16.6305 0.414062 36.8945C0.414062 57.1585 16.8937 73.625 37.1738 73.625C57.454 73.625 73.9336 57.1585 73.9336 36.8945C73.9336 35.6183 73.8713 34.3421 73.7467 33.0658Z" fill="#20B486"/>
</svg>
