<svg width="152" height="141" viewBox="0 0 152 141" fill="none" xmlns="http://www.w3.org/2000/svg">
<path d="M117.974 69.6551L104.86 99.6335C104.86 99.6335 91.5358 107.881 64.4504 96.0328C37.365 84.1845 34.3778 68.8016 34.3778 68.8016L47.4916 38.8232" stroke="#007BFF" stroke-width="3" stroke-miterlimit="10"/>
<path d="M106.95 68.6692L85.9312 116.718" stroke="#007BFF" stroke-width="3" stroke-miterlimit="10"/>
<path d="M93.6879 29.1954L132.841 66.9676L77.4122 66.402L39.3741 26.0814L93.6879 29.1954ZM95.7857 24.3998C95.5235 24.2887 95.2444 24.2226 94.9603 24.2044L33.0254 20.6545C32.5608 20.6829 32.1131 20.839 31.7316 21.1055C31.35 21.372 31.0494 21.7386 30.8629 22.165C30.6764 22.5914 30.6112 23.061 30.6744 23.5221C30.7377 23.9832 30.927 24.4179 31.2215 24.7783L74.6106 70.7241C74.8313 70.9586 75.0948 71.1488 75.3868 71.2844C75.6912 71.4132 76.0178 71.4811 76.3483 71.4842L139.54 72.1613C140.004 72.1329 140.452 71.9769 140.834 71.7104C141.215 71.4439 141.516 71.0773 141.702 70.6509C141.889 70.2245 141.954 69.7549 141.891 69.2938C141.828 68.8327 141.638 68.398 141.344 68.0376L96.698 24.9645C96.4944 24.7649 96.2559 24.6044 95.9942 24.4911L95.7857 24.3998Z" fill="#007BFF"/>
<path d="M81.2369 125.714C80.1967 125.259 79.3147 124.506 78.7026 123.549C78.0904 122.593 77.7756 121.477 77.7979 120.342C77.8202 119.207 78.1786 118.104 78.8277 117.172C79.4769 116.241 80.3878 115.523 81.445 115.109C82.5023 114.696 83.6586 114.605 84.7676 114.848C85.8766 115.092 86.8886 115.658 87.6755 116.477C88.4625 117.295 88.989 118.329 89.1886 119.446C89.3882 120.564 89.2519 121.716 88.7969 122.756C88.4948 123.446 88.0597 124.071 87.5162 124.593C86.9728 125.115 86.3318 125.526 85.6298 125.8C84.9277 126.075 84.1785 126.209 83.4248 126.194C82.6711 126.179 81.9276 126.016 81.2369 125.714Z" fill="#007BFF"/>
<path d="M85.3208 116.378C86.1359 116.729 86.8282 117.314 87.3098 118.059C87.7914 118.805 88.0406 119.676 88.0257 120.564C88.0108 121.451 87.7325 122.314 87.2261 123.042C86.7197 123.771 86.0081 124.333 85.1816 124.656C84.3552 124.98 83.4514 125.05 82.5848 124.859C81.7182 124.667 80.9281 124.222 80.3148 123.581C79.7015 122.94 79.2928 122.13 79.1404 121.256C78.9881 120.382 79.0991 119.482 79.4593 118.671C79.9324 117.59 80.8157 116.741 81.9149 116.31C83.0141 115.88 84.2393 115.904 85.3208 116.378ZM86.3342 114.061C85.0639 113.505 83.6572 113.339 82.2924 113.583C80.9275 113.827 79.6659 114.471 78.6673 115.433C77.6687 116.395 76.978 117.631 76.6827 118.986C76.3874 120.34 76.5008 121.752 77.0085 123.042C77.5162 124.333 78.3954 125.443 79.5347 126.233C80.674 127.024 82.0223 127.458 83.4086 127.482C84.795 127.505 86.1571 127.117 87.3225 126.366C88.4879 125.615 89.4041 124.535 89.9552 123.262C90.6918 121.562 90.7244 119.639 90.0457 117.914C89.367 116.189 88.0324 114.804 86.3342 114.061Z" fill="#007BFF"/>
</svg>
