<svg width="28" height="28" viewBox="0 0 28 28" fill="none" xmlns="http://www.w3.org/2000/svg">
<path d="M17.7799 25.9819H17.6283C12.4483 25.9819 9.9516 23.9402 9.51994 19.3669C9.47327 18.8886 9.82327 18.4569 10.3133 18.4102C10.7799 18.3636 11.2233 18.7252 11.2699 19.2036C11.6083 22.8669 13.3349 24.2319 17.6399 24.2319H17.7916C22.5399 24.2319 24.2199 22.5519 24.2199 17.8036V10.1969C24.2199 5.44855 22.5399 3.76855 17.7916 3.76855H17.6399C13.3116 3.76855 11.5849 5.15689 11.2699 8.89022C11.2116 9.36856 10.8033 9.73022 10.3133 9.68356C9.82327 9.64856 9.47327 9.21689 9.50827 8.73855C9.90494 4.09522 12.4133 2.01855 17.6283 2.01855H17.7799C23.5083 2.01855 25.9583 4.46855 25.9583 10.1969V17.8036C25.9583 23.5319 23.5083 25.9819 17.7799 25.9819Z" fill="#F13C3C"/>
<path d="M17.4998 14.875H4.22314C3.74481 14.875 3.34814 14.4783 3.34814 14C3.34814 13.5217 3.74481 13.125 4.22314 13.125H17.4998C17.9781 13.125 18.3748 13.5217 18.3748 14C18.3748 14.4783 17.9781 14.875 17.4998 14.875Z" fill="#F13C3C"/>
<path d="M6.82485 18.7835C6.60318 18.7835 6.38152 18.7018 6.20652 18.5268L2.29818 14.6185C1.95985 14.2801 1.95985 13.7201 2.29818 13.3818L6.20652 9.47348C6.54485 9.13514 7.10485 9.13514 7.44318 9.47348C7.78152 9.81181 7.78152 10.3718 7.44318 10.7101L4.15318 14.0001L7.44318 17.2901C7.78152 17.6285 7.78152 18.1885 7.44318 18.5268C7.27985 18.7018 7.04652 18.7835 6.82485 18.7835Z" fill="#F13C3C"/>
</svg>
