<svg width="278" height="56" viewBox="0 0 278 56" fill="none" xmlns="http://www.w3.org/2000/svg">
<circle cx="27.6163" cy="28" r="27.6163" fill="url(#paint0_linear_562_1623)"/>
<circle cx="15.4074" cy="15.7906" r="6.10465" fill="#F8F9FA"/>
<circle cx="15.4074" cy="27.9999" r="6.10465" fill="#F8F9FA"/>
<circle cx="15.4074" cy="40.2092" r="6.10465" fill="#F8F9FA"/>
<circle cx="27.6164" cy="40.2092" r="6.10465" fill="#F8F9FA"/>
<circle cx="39.8254" cy="40.2094" r="6.10465" fill="#F8F9FA"/>
<path d="M82.4335 16.6198V20.3459H75.0992V41H70.5637V20.3459H63.1957V16.6198H82.4335ZM94.5108 41H92.6393C92.2459 41 91.9368 40.9438 91.712 40.8314C91.4872 40.7078 91.3186 40.4661 91.2062 40.1064L90.8352 38.8756C90.3969 39.269 89.9641 39.6174 89.537 39.9209C89.1211 40.2132 88.6883 40.4605 88.2387 40.6628C87.7891 40.8651 87.3114 41.0169 86.8056 41.118C86.2998 41.2192 85.7378 41.2698 85.1195 41.2698C84.3889 41.2698 83.7145 41.1742 83.0963 40.9831C82.4781 40.7808 81.9442 40.4829 81.4945 40.0895C81.0562 39.6961 80.7133 39.2072 80.4661 38.6227C80.2188 38.0382 80.0951 37.3581 80.0951 36.5826C80.0951 35.9306 80.2637 35.2899 80.6009 34.6605C80.9494 34.0198 81.5226 33.4465 82.3207 32.9407C83.1188 32.4236 84.181 31.9965 85.5073 31.6593C86.8337 31.3221 88.4804 31.131 90.4474 31.086V30.0744C90.4474 28.9167 90.2002 28.0624 89.7056 27.5116C89.2223 26.9496 88.5141 26.6686 87.5812 26.6686C86.9068 26.6686 86.3447 26.7473 85.8951 26.9046C85.4455 27.062 85.0521 27.2419 84.7149 27.4442C84.3889 27.6353 84.0854 27.8095 83.8044 27.9669C83.5234 28.1242 83.2143 28.2029 82.8771 28.2029C82.5961 28.2029 82.3544 28.1298 82.1521 27.9837C81.9498 27.8376 81.7868 27.6578 81.6631 27.4442L80.9044 26.1122C82.894 24.2913 85.2938 23.3808 88.1038 23.3808C89.1155 23.3808 90.0147 23.5494 90.8015 23.8866C91.5996 24.2126 92.274 24.6734 92.8248 25.2692C93.3755 25.8537 93.7914 26.5562 94.0724 27.3767C94.3647 28.1973 94.5108 29.0965 94.5108 30.0744V41ZM86.4178 38.4035C86.8449 38.4035 87.2383 38.3641 87.598 38.2855C87.9577 38.2068 88.2949 38.0888 88.6097 37.9314C88.9356 37.774 89.2447 37.5829 89.537 37.3581C89.8405 37.1221 90.144 36.8467 90.4474 36.532V33.6151C89.2335 33.6713 88.2162 33.7781 87.3957 33.9355C86.5864 34.0816 85.9345 34.2727 85.4399 34.5087C84.9453 34.7448 84.5912 35.0202 84.3777 35.3349C84.1754 35.6496 84.0742 35.9924 84.0742 36.3634C84.0742 37.094 84.2878 37.6167 84.7149 37.9314C85.1533 38.2461 85.7209 38.4035 86.4178 38.4035ZM103.04 15.9453V41H98.8756V15.9453H103.04ZM114.909 23.4314C116 23.4314 117 23.6056 117.911 23.9541C118.832 24.3025 119.625 24.814 120.288 25.4884C120.951 26.1515 121.468 26.9721 121.839 27.95C122.21 28.9167 122.395 30.0238 122.395 31.2715C122.395 31.5862 122.379 31.8504 122.345 32.064C122.322 32.2663 122.272 32.4293 122.193 32.5529C122.126 32.6653 122.03 32.7496 121.906 32.8058C121.783 32.8508 121.625 32.8733 121.434 32.8733H110.745C110.868 34.6492 111.346 35.9531 112.178 36.7849C113.01 37.6167 114.111 38.0326 115.483 38.0326C116.157 38.0326 116.736 37.9539 117.219 37.7965C117.714 37.6391 118.141 37.4649 118.501 37.2738C118.872 37.0828 119.192 36.9085 119.462 36.7512C119.743 36.5938 120.012 36.5151 120.271 36.5151C120.44 36.5151 120.586 36.5488 120.709 36.6163C120.833 36.6837 120.94 36.7793 121.03 36.9029L122.244 38.4203C121.783 38.9599 121.266 39.4151 120.692 39.786C120.119 40.1457 119.518 40.438 118.888 40.6628C118.27 40.8764 117.635 41.0281 116.983 41.118C116.342 41.2079 115.719 41.2529 115.112 41.2529C113.909 41.2529 112.791 41.0562 111.756 40.6628C110.722 40.2581 109.823 39.668 109.059 38.8924C108.294 38.1056 107.693 37.139 107.255 35.9924C106.816 34.8347 106.597 33.4971 106.597 31.9797C106.597 30.7994 106.788 29.6922 107.17 28.6581C107.553 27.6128 108.098 26.7079 108.806 25.9436C109.525 25.168 110.396 24.5554 111.419 24.1058C112.453 23.6562 113.617 23.4314 114.909 23.4314ZM114.994 26.4157C113.78 26.4157 112.83 26.7585 112.144 27.4442C111.459 28.1298 111.02 29.1021 110.829 30.361H118.652C118.652 29.8215 118.579 29.3157 118.433 28.8436C118.287 28.3603 118.062 27.9388 117.759 27.5791C117.455 27.2194 117.073 26.9384 116.612 26.736C116.151 26.5225 115.612 26.4157 114.994 26.4157ZM125.774 41V23.7012H128.319C128.859 23.7012 129.213 23.9541 129.382 24.4599L129.668 25.8256C130.017 25.4659 130.382 25.1399 130.764 24.8477C131.158 24.5554 131.568 24.3025 131.995 24.089C132.433 23.8754 132.9 23.7124 133.394 23.6C133.889 23.4876 134.429 23.4314 135.013 23.4314C135.957 23.4314 136.795 23.5944 137.525 23.9203C138.256 24.2351 138.863 24.6847 139.346 25.2692C139.841 25.8424 140.212 26.5337 140.459 27.343C140.718 28.1411 140.847 29.0234 140.847 29.9901V41H136.682V29.9901C136.682 28.9335 136.435 28.1186 135.94 27.5453C135.457 26.9609 134.726 26.6686 133.749 26.6686C133.029 26.6686 132.355 26.8316 131.725 27.1576C131.096 27.4835 130.5 27.9275 129.938 28.4895V41H125.774ZM150.621 41.2698C149.126 41.2698 147.974 40.8483 147.165 40.0052C146.355 39.151 145.951 37.9764 145.951 36.4814V26.8203H144.197C143.972 26.8203 143.776 26.7473 143.607 26.6012C143.45 26.455 143.371 26.2359 143.371 25.9436V24.2913L146.153 23.836L147.03 19.1151C147.075 18.8903 147.176 18.7161 147.333 18.5924C147.502 18.4688 147.71 18.407 147.957 18.407H150.115V23.8529H154.668V26.8203H150.115V36.1948C150.115 36.7343 150.25 37.1558 150.52 37.4593C150.79 37.7628 151.149 37.9145 151.599 37.9145C151.858 37.9145 152.071 37.8864 152.24 37.8302C152.42 37.7628 152.571 37.6953 152.695 37.6279C152.83 37.5605 152.948 37.4986 153.049 37.4424C153.15 37.375 153.251 37.3413 153.353 37.3413C153.476 37.3413 153.577 37.375 153.656 37.4424C153.735 37.4986 153.819 37.5886 153.909 37.7122L155.157 39.7355C154.55 40.2413 153.853 40.6234 153.066 40.882C152.279 41.1405 151.464 41.2698 150.621 41.2698Z" fill="#202121"/>
<path d="M174.688 34.6436C174.823 34.6436 174.958 34.6717 175.093 34.7279C175.228 34.7729 175.357 34.8572 175.481 34.9808L177.74 37.3581C176.751 38.6508 175.509 39.6287 174.014 40.2919C172.53 40.9438 170.771 41.2698 168.737 41.2698C166.871 41.2698 165.196 40.955 163.712 40.3256C162.24 39.6849 160.986 38.8081 159.952 37.6953C158.929 36.5713 158.143 35.245 157.592 33.7163C157.041 32.1764 156.766 30.5072 156.766 28.7087C156.766 26.8765 157.064 25.1961 157.659 23.6674C158.255 22.1275 159.092 20.8012 160.172 19.6884C161.251 18.5756 162.543 17.7101 164.049 17.0919C165.556 16.4736 167.214 16.1645 169.023 16.1645C169.945 16.1645 170.81 16.2488 171.62 16.4174C172.44 16.5748 173.205 16.7996 173.913 17.0919C174.621 17.3729 175.273 17.7157 175.869 18.1203C176.464 18.525 176.993 18.9634 177.454 19.4355L175.531 22.0151C175.408 22.1725 175.262 22.3186 175.093 22.4535C174.924 22.5771 174.688 22.639 174.385 22.639C174.183 22.639 173.991 22.594 173.812 22.5041C173.632 22.4141 173.441 22.3074 173.238 22.1837C173.036 22.0488 172.811 21.9083 172.564 21.7622C172.328 21.6048 172.041 21.4643 171.704 21.3407C171.378 21.2058 170.99 21.0934 170.541 21.0035C170.102 20.9136 169.585 20.8686 168.99 20.8686C168.045 20.8686 167.18 21.0428 166.393 21.3913C165.617 21.7397 164.943 22.2512 164.37 22.9256C163.808 23.5888 163.369 24.4093 163.055 25.3872C162.751 26.3539 162.599 27.461 162.599 28.7087C162.599 29.9676 162.768 31.086 163.105 32.064C163.454 33.0419 163.92 33.868 164.505 34.5424C165.1 35.2056 165.792 35.7114 166.579 36.0599C167.365 36.4083 168.208 36.5826 169.108 36.5826C169.625 36.5826 170.097 36.5601 170.524 36.5151C170.951 36.4589 171.35 36.3746 171.721 36.2622C172.092 36.1386 172.44 35.9812 172.766 35.7901C173.092 35.5878 173.424 35.3349 173.761 35.0314C173.896 34.919 174.042 34.8291 174.199 34.7616C174.357 34.6829 174.52 34.6436 174.688 34.6436ZM193.632 41H191.76C191.367 41 191.058 40.9438 190.833 40.8314C190.608 40.7078 190.44 40.4661 190.327 40.1064L189.956 38.8756C189.518 39.269 189.085 39.6174 188.658 39.9209C188.242 40.2132 187.809 40.4605 187.36 40.6628C186.91 40.8651 186.433 41.0169 185.927 41.118C185.421 41.2192 184.859 41.2698 184.241 41.2698C183.51 41.2698 182.836 41.1742 182.217 40.9831C181.599 40.7808 181.065 40.4829 180.616 40.0895C180.177 39.6961 179.834 39.2072 179.587 38.6227C179.34 38.0382 179.216 37.3581 179.216 36.5826C179.216 35.9306 179.385 35.2899 179.722 34.6605C180.07 34.0198 180.644 33.4465 181.442 32.9407C182.24 32.4236 183.302 31.9965 184.628 31.6593C185.955 31.3221 187.601 31.131 189.569 31.086V30.0744C189.569 28.9167 189.321 28.0624 188.827 27.5116C188.343 26.9496 187.635 26.6686 186.702 26.6686C186.028 26.6686 185.466 26.7473 185.016 26.9046C184.567 27.062 184.173 27.2419 183.836 27.4442C183.51 27.6353 183.207 27.8095 182.926 27.9669C182.645 28.1242 182.335 28.2029 181.998 28.2029C181.717 28.2029 181.476 28.1298 181.273 27.9837C181.071 27.8376 180.908 27.6578 180.784 27.4442L180.026 26.1122C182.015 24.2913 184.415 23.3808 187.225 23.3808C188.237 23.3808 189.136 23.5494 189.923 23.8866C190.721 24.2126 191.395 24.6734 191.946 25.2692C192.497 25.8537 192.913 26.5562 193.194 27.3767C193.486 28.1973 193.632 29.0965 193.632 30.0744V41ZM185.539 38.4035C185.966 38.4035 186.359 38.3641 186.719 38.2855C187.079 38.2068 187.416 38.0888 187.731 37.9314C188.057 37.774 188.366 37.5829 188.658 37.3581C188.962 37.1221 189.265 36.8467 189.569 36.532V33.6151C188.355 33.6713 187.337 33.7781 186.517 33.9355C185.708 34.0816 185.056 34.2727 184.561 34.5087C184.066 34.7448 183.712 35.0202 183.499 35.3349C183.296 35.6496 183.195 35.9924 183.195 36.3634C183.195 37.094 183.409 37.6167 183.836 37.9314C184.274 38.2461 184.842 38.4035 185.539 38.4035ZM197.727 41V23.7012H200.273C200.812 23.7012 201.166 23.9541 201.335 24.4599L201.605 25.7413C201.908 25.4041 202.223 25.095 202.549 24.814C202.886 24.5329 203.24 24.2913 203.611 24.089C203.993 23.8866 204.398 23.7293 204.825 23.6169C205.264 23.4932 205.741 23.4314 206.258 23.4314C207.349 23.4314 208.242 23.7293 208.939 24.325C209.647 24.9095 210.176 25.6907 210.524 26.6686C210.794 26.0953 211.131 25.6064 211.536 25.2017C211.94 24.7859 212.384 24.4486 212.868 24.1901C213.351 23.9316 213.862 23.7405 214.402 23.6169C214.953 23.4932 215.503 23.4314 216.054 23.4314C217.01 23.4314 217.858 23.5775 218.6 23.8698C219.342 24.162 219.966 24.5891 220.472 25.1512C220.977 25.7132 221.36 26.3988 221.618 27.2081C221.888 28.0174 222.023 28.9448 222.023 29.9901V41H217.858V29.9901C217.858 28.8886 217.617 28.0624 217.133 27.5116C216.65 26.9496 215.942 26.6686 215.009 26.6686C214.582 26.6686 214.183 26.7417 213.812 26.8878C213.452 27.0339 213.132 27.2475 212.851 27.5285C212.581 27.7983 212.367 28.1411 212.21 28.557C212.053 28.9729 211.974 29.4506 211.974 29.9901V41H207.793V29.9901C207.793 28.8324 207.557 27.9893 207.084 27.461C206.624 26.9328 205.938 26.6686 205.027 26.6686C204.432 26.6686 203.87 26.8203 203.341 27.1238C202.824 27.4161 202.341 27.8207 201.891 28.3378V41H197.727ZM226.113 46.6483V23.7012H228.659C228.929 23.7012 229.159 23.763 229.35 23.8866C229.541 24.0103 229.665 24.2014 229.721 24.4599L230.058 26.0616C230.755 25.2636 231.553 24.6172 232.453 24.1227C233.363 23.6281 234.425 23.3808 235.639 23.3808C236.583 23.3808 237.443 23.5775 238.219 23.9709C239.006 24.3643 239.68 24.9376 240.242 25.6907C240.815 26.4326 241.254 27.3543 241.557 28.4558C241.872 29.5461 242.029 30.7994 242.029 32.2157C242.029 33.5083 241.855 34.7054 241.507 35.807C241.158 36.9085 240.658 37.864 240.006 38.6733C239.365 39.4826 238.584 40.1176 237.662 40.5785C236.752 41.0281 235.729 41.2529 234.594 41.2529C233.616 41.2529 232.784 41.1068 232.099 40.8145C231.424 40.511 230.817 40.0952 230.278 39.5669V46.6483H226.113ZM234.206 26.6686C233.341 26.6686 232.599 26.8541 231.981 27.225C231.374 27.5847 230.806 28.0961 230.278 28.7593V36.5151C230.75 37.0996 231.261 37.5099 231.812 37.7459C232.374 37.9707 232.975 38.0831 233.616 38.0831C234.245 38.0831 234.813 37.9651 235.319 37.7291C235.836 37.493 236.269 37.1333 236.617 36.65C236.977 36.1667 237.252 35.5597 237.443 34.8291C237.634 34.0872 237.73 33.2161 237.73 32.2157C237.73 31.2041 237.646 30.3498 237.477 29.6529C237.32 28.9448 237.089 28.3715 236.786 27.9331C236.482 27.4948 236.111 27.1744 235.673 26.9721C235.246 26.7698 234.757 26.6686 234.206 26.6686ZM248.99 23.7012V34.6942C248.99 35.7508 249.232 36.5713 249.715 37.1558C250.21 37.7291 250.946 38.0157 251.924 38.0157C252.643 38.0157 253.318 37.8583 253.947 37.5436C254.577 37.2176 255.173 36.7736 255.735 36.2116V23.7012H259.899V41H257.353C256.814 41 256.46 40.7471 256.291 40.2413L256.004 38.8587C255.645 39.2184 255.274 39.55 254.892 39.8535C254.509 40.1457 254.099 40.3986 253.661 40.6122C253.234 40.8145 252.767 40.9719 252.261 41.0843C251.767 41.2079 251.233 41.2698 250.66 41.2698C249.715 41.2698 248.878 41.1124 248.147 40.7977C247.428 40.4717 246.821 40.0165 246.326 39.432C245.832 38.8475 245.455 38.1562 245.197 37.3581C244.949 36.5488 244.826 35.6609 244.826 34.6942V23.7012H248.99ZM274.614 27.0733C274.501 27.2531 274.383 27.3824 274.259 27.461C274.136 27.5285 273.978 27.5622 273.787 27.5622C273.585 27.5622 273.366 27.506 273.13 27.3936C272.905 27.2812 272.641 27.1576 272.337 27.0227C272.034 26.8765 271.685 26.7473 271.292 26.6349C270.91 26.5225 270.455 26.4663 269.926 26.4663C269.106 26.4663 268.459 26.6405 267.987 26.989C267.515 27.3374 267.279 27.7926 267.279 28.3546C267.279 28.7256 267.397 29.0403 267.633 29.2988C267.881 29.5461 268.201 29.7653 268.594 29.9564C268.999 30.1475 269.454 30.3217 269.96 30.4791C270.466 30.6252 270.983 30.7882 271.511 30.968C272.039 31.1479 272.557 31.3558 273.062 31.5919C273.568 31.8167 274.018 32.1089 274.411 32.4686C274.816 32.8171 275.136 33.2386 275.372 33.7331C275.62 34.2277 275.743 34.8234 275.743 35.5203C275.743 36.3521 275.591 37.1221 275.288 37.8302C274.984 38.5271 274.54 39.1341 273.956 39.6512C273.371 40.157 272.646 40.556 271.781 40.8483C270.927 41.1293 269.943 41.2698 268.83 41.2698C268.235 41.2698 267.65 41.2136 267.077 41.1012C266.515 41 265.97 40.8539 265.441 40.6628C264.924 40.4717 264.441 40.2469 263.991 39.9884C263.553 39.7298 263.165 39.4488 262.828 39.1453L263.789 37.5605C263.913 37.3694 264.059 37.2233 264.227 37.1221C264.396 37.0209 264.61 36.9703 264.868 36.9703C265.127 36.9703 265.368 37.0434 265.593 37.1895C265.829 37.3357 266.099 37.493 266.402 37.6616C266.706 37.8302 267.06 37.9876 267.465 38.1337C267.881 38.2798 268.403 38.3529 269.033 38.3529C269.527 38.3529 269.949 38.2967 270.297 38.1843C270.657 38.0607 270.949 37.9033 271.174 37.7122C271.41 37.5211 271.579 37.3019 271.68 37.0547C271.792 36.7961 271.848 36.532 271.848 36.2622C271.848 35.8576 271.725 35.526 271.477 35.2674C271.241 35.0089 270.921 34.7841 270.516 34.593C270.123 34.4019 269.668 34.2333 269.151 34.0872C268.645 33.9298 268.122 33.7612 267.583 33.5814C267.054 33.4015 266.532 33.1936 266.015 32.9576C265.509 32.7103 265.054 32.4012 264.649 32.0302C264.256 31.6593 263.935 31.2041 263.688 30.6645C263.452 30.125 263.334 29.4731 263.334 28.7087C263.334 28.0006 263.474 27.3262 263.755 26.6855C264.036 26.0448 264.447 25.4884 264.986 25.0163C265.537 24.5329 266.217 24.1508 267.026 23.8698C267.847 23.5775 268.791 23.4314 269.859 23.4314C271.05 23.4314 272.135 23.6281 273.113 24.0215C274.091 24.4149 274.906 24.932 275.558 25.5727L274.614 27.0733Z" fill="url(#paint1_linear_562_1623)"/>
<defs>
<linearGradient id="paint0_linear_562_1623" x1="0" y1="55.6163" x2="55.2326" y2="55.6163" gradientUnits="userSpaceOnUse">
<stop stop-color="#007BFF"/>
<stop offset="1" stop-color="#28A745" stop-opacity="0.6"/>
</linearGradient>
<linearGradient id="paint1_linear_562_1623" x1="62.791" y1="48" x2="277.791" y2="48" gradientUnits="userSpaceOnUse">
<stop stop-color="#007BFF"/>
<stop offset="1" stop-color="#28A745" stop-opacity="0.6"/>
</linearGradient>
</defs>
</svg>
