<svg width="160" height="25" viewBox="0 0 160 25" fill="none" xmlns="http://www.w3.org/2000/svg">
<path d="M13.7299 4.16517L15.4899 7.68517C15.7299 8.17517 16.3699 8.64517 16.9099 8.73517L20.0999 9.26517C22.1399 9.60517 22.6199 11.0852 21.1499 12.5452L18.6699 15.0252C18.2499 15.4452 18.0199 16.2552 18.1499 16.8352L18.8599 19.9052C19.4199 22.3352 18.1299 23.2752 15.9799 22.0052L12.9899 20.2352C12.4499 19.9152 11.5599 19.9152 11.0099 20.2352L8.01991 22.0052C5.87991 23.2752 4.57991 22.3252 5.13991 19.9052L5.84991 16.8352C5.97991 16.2552 5.74991 15.4452 5.32991 15.0252L2.84991 12.5452C1.38991 11.0852 1.85991 9.60517 3.89991 9.26517L7.08991 8.73517C7.61991 8.64517 8.25991 8.17517 8.49991 7.68517L10.2599 4.16517C11.2199 2.25517 12.7799 2.25517 13.7299 4.16517Z" fill="#FFC107" stroke="#FFC107" stroke-width="1.5" stroke-linecap="round" stroke-linejoin="round"/>
<path d="M47.7299 4.16517L49.4899 7.68517C49.7299 8.17517 50.3699 8.64517 50.9099 8.73517L54.0999 9.26517C56.1399 9.60517 56.6199 11.0852 55.1499 12.5452L52.6699 15.0252C52.2499 15.4452 52.0199 16.2552 52.1499 16.8352L52.8599 19.9052C53.4199 22.3352 52.1299 23.2752 49.9799 22.0052L46.9899 20.2352C46.4499 19.9152 45.5599 19.9152 45.0099 20.2352L42.0199 22.0052C39.8799 23.2752 38.5799 22.3252 39.1399 19.9052L39.8499 16.8352C39.9799 16.2552 39.7499 15.4452 39.3299 15.0252L36.8499 12.5452C35.3899 11.0852 35.8599 9.60517 37.8999 9.26517L41.0899 8.73517C41.6199 8.64517 42.2599 8.17517 42.4999 7.68517L44.2599 4.16517C45.2199 2.25517 46.7799 2.25517 47.7299 4.16517Z" fill="#FFC107" stroke="#FFC107" stroke-width="1.5" stroke-linecap="round" stroke-linejoin="round"/>
<path d="M81.7299 4.16517L83.4899 7.68517C83.7299 8.17517 84.3699 8.64517 84.9099 8.73517L88.0999 9.26517C90.1399 9.60517 90.6199 11.0852 89.1499 12.5452L86.6699 15.0252C86.2499 15.4452 86.0199 16.2552 86.1499 16.8352L86.8599 19.9052C87.4199 22.3352 86.1299 23.2752 83.9799 22.0052L80.9899 20.2352C80.4499 19.9152 79.5599 19.9152 79.0099 20.2352L76.0199 22.0052C73.8799 23.2752 72.5799 22.3252 73.1399 19.9052L73.8499 16.8352C73.9799 16.2552 73.7499 15.4452 73.3299 15.0252L70.8499 12.5452C69.3899 11.0852 69.8599 9.60517 71.8999 9.26517L75.0899 8.73517C75.6199 8.64517 76.2599 8.17517 76.4999 7.68517L78.2599 4.16517C79.2199 2.25517 80.7799 2.25517 81.7299 4.16517Z" fill="#FFC107" stroke="#FFC107" stroke-width="1.5" stroke-linecap="round" stroke-linejoin="round"/>
<path d="M115.73 4.16517L117.49 7.68517C117.73 8.17517 118.37 8.64517 118.91 8.73517L122.1 9.26517C124.14 9.60517 124.62 11.0852 123.15 12.5452L120.67 15.0252C120.25 15.4452 120.02 16.2552 120.15 16.8352L120.86 19.9052C121.42 22.3352 120.13 23.2752 117.98 22.0052L114.99 20.2352C114.45 19.9152 113.56 19.9152 113.01 20.2352L110.02 22.0052C107.88 23.2752 106.58 22.3252 107.14 19.9052L107.85 16.8352C107.98 16.2552 107.75 15.4452 107.33 15.0252L104.85 12.5452C103.39 11.0852 103.86 9.60517 105.9 9.26517L109.09 8.73517C109.62 8.64517 110.26 8.17517 110.5 7.68517L112.26 4.16517C113.22 2.25517 114.78 2.25517 115.73 4.16517Z" fill="#FFC107" stroke="#FFC107" stroke-width="1.5" stroke-linecap="round" stroke-linejoin="round"/>
<path d="M149.73 4.16517L151.49 7.68517C151.73 8.17517 152.37 8.64517 152.91 8.73517L156.1 9.26517C158.14 9.60517 158.62 11.0852 157.15 12.5452L154.67 15.0252C154.25 15.4452 154.02 16.2552 154.15 16.8352L154.86 19.9052C155.42 22.3352 154.13 23.2752 151.98 22.0052L148.99 20.2352C148.45 19.9152 147.56 19.9152 147.01 20.2352L144.02 22.0052C141.88 23.2752 140.58 22.3252 141.14 19.9052L141.85 16.8352C141.98 16.2552 141.75 15.4452 141.33 15.0252L138.85 12.5452C137.39 11.0852 137.86 9.60517 139.9 9.26517L143.09 8.73517C143.62 8.64517 144.26 8.17517 144.5 7.68517L146.26 4.16517C147.22 2.25517 148.78 2.25517 149.73 4.16517Z" stroke="#FFC107" stroke-width="1.5" stroke-linecap="round" stroke-linejoin="round"/>
</svg>
