<svg width="167" height="117" viewBox="0 0 167 117" fill="none" xmlns="http://www.w3.org/2000/svg">
<path d="M133.962 114C142.471 112.744 150.225 108.411 155.758 101.82C161.291 95.2291 164.218 86.8376 163.987 78.2327C163.756 69.6277 160.383 61.4057 154.504 55.1218C148.626 48.8378 140.65 44.9275 132.086 44.1305C128.672 44.132 125.277 44.6259 122.004 45.5971C119.073 33.503 112.183 22.7384 102.43 15.0187C92.6766 7.29895 80.6225 3.06831 68.1881 3.00082C55.7536 2.93333 43.6543 7.03288 33.8182 14.6463C23.9821 22.2597 16.975 32.9488 13.9136 45.0104C11.397 44.4187 8.81987 44.1234 6.23473 44.1305C-2.31554 44.8472 -10.3091 48.6674 -16.241 54.8718C-22.1729 61.0762 -25.634 69.2369 -25.9726 77.8173C-26.3112 86.3978 -23.5039 94.8061 -18.0794 101.459C-12.6549 108.113 -4.98744 112.552 3.47971 113.941L133.962 114Z" stroke="#007BFF" stroke-width="5" stroke-miterlimit="10" stroke-linecap="round"/>
</svg>
