<svg width="19" height="19" viewBox="0 0 19 19" fill="none" xmlns="http://www.w3.org/2000/svg">
<path d="M16.9999 9.46956C17.006 10.9555 16.5705 12.4097 15.7487 13.6478C14.9269 14.8858 13.7558 15.8518 12.3842 16.4233C11.0125 16.9947 9.50203 17.1458 8.04433 16.8574C6.58664 16.5689 5.24743 15.854 4.1967 14.8033C3.14598 13.7526 2.43104 12.4134 2.14263 10.9557C1.85421 9.49802 2.00533 7.9875 2.57676 6.61582C3.14819 5.24414 4.11425 4.07311 5.35228 3.25133C6.59031 2.42954 8.04455 1.99403 9.53048 2.00006C11.5091 2.00809 13.4043 2.79763 14.8033 4.1967C16.2024 5.59577 16.9919 7.49099 16.9999 9.46956Z" stroke="#007BFF" stroke-width="3" stroke-miterlimit="10"/>
</svg>
