<svg width="15" height="15" viewBox="0 0 15 15" fill="none" xmlns="http://www.w3.org/2000/svg">
<path d="M13 7.47768C13.0044 8.56736 12.685 9.63381 12.0824 10.5417C11.4798 11.4496 10.6209 12.158 9.61505 12.5771C8.60915 12.9961 7.50149 13.1069 6.43251 12.8954C5.36354 12.6839 4.38145 12.1596 3.61092 11.3891C2.84038 10.6185 2.3161 9.63649 2.10459 8.56752C1.89309 7.49855 2.00391 6.39083 2.42296 5.38493C2.84201 4.37903 3.55045 3.52028 4.45834 2.91764C5.36622 2.315 6.43267 1.99562 7.52236 2.00005C8.9733 2.00593 10.3631 2.58493 11.3891 3.61091C12.4151 4.6369 12.9941 6.02673 13 7.47768Z" stroke="#007BFF" stroke-width="3" stroke-miterlimit="10"/>
</svg>
