<svg width="40" height="30" viewBox="0 0 40 30" fill="none" xmlns="http://www.w3.org/2000/svg">
<path d="M20.0005 25C18.6198 25 17.5005 26.1192 17.5005 27.5C17.5005 28.8808 18.6198 30 20.0005 30V25ZM20.0255 30C21.4062 30 22.5255 28.8808 22.5255 27.5C22.5255 26.1192 21.4062 25 20.0255 25V30ZM26.7267 20.1C27.7483 21.029 29.3293 20.9543 30.2583 19.933C31.1875 18.9115 31.1125 17.3305 30.0913 16.4013L26.7267 20.1ZM35.1353 10.8507C36.1565 11.7797 37.7378 11.705 38.6668 10.6835C39.596 9.66225 39.521 8.081 38.4998 7.152L35.1353 10.8507ZM9.90985 16.4013C8.88848 17.3305 8.81365 18.9115 9.7427 19.933C10.6718 20.9543 12.2529 21.029 13.2743 20.1L9.90985 16.4013ZM1.50138 7.152C0.480001 8.081 0.405175 9.66225 1.33423 10.6835C2.2633 11.705 3.84445 11.7797 4.86583 10.8507L1.50138 7.152ZM20.0005 30H20.0255V25H20.0005V30ZM20.0005 17.5C22.5923 17.5 24.9487 18.4828 26.7267 20.1L30.0913 16.4013C27.4288 13.9795 23.8845 12.5 20.0005 12.5V17.5ZM20.0005 5C25.8302 5 31.137 7.21375 35.1353 10.8507L38.4998 7.152C33.617 2.7105 27.1223 0 20.0005 0V5ZM13.2743 20.1C15.0522 18.4828 17.4088 17.5 20.0005 17.5V12.5C16.1165 12.5 12.5723 13.9795 9.90985 16.4013L13.2743 20.1ZM4.86583 10.8507C8.86413 7.21375 14.1709 5 20.0005 5V0C12.8787 0 6.38413 2.7105 1.50138 7.152L4.86583 10.8507Z" fill="black"/>
</svg>
