<svg width="24" height="25" viewBox="0 0 24 25" fill="none" xmlns="http://www.w3.org/2000/svg">
<path d="M13.7299 4.16517L15.4899 7.68517C15.7299 8.17517 16.3699 8.64517 16.9099 8.73517L20.0999 9.26517C22.1399 9.60517 22.6199 11.0852 21.1499 12.5452L18.6699 15.0252C18.2499 15.4452 18.0199 16.2552 18.1499 16.8352L18.8599 19.9052C19.4199 22.3352 18.1299 23.2752 15.9799 22.0052L12.9899 20.2352C12.4499 19.9152 11.5599 19.9152 11.0099 20.2352L8.01991 22.0052C5.87991 23.2752 4.57991 22.3252 5.13991 19.9052L5.84991 16.8352C5.97991 16.2552 5.74991 15.4452 5.32991 15.0252L2.84991 12.5452C1.38991 11.0852 1.85991 9.60517 3.89991 9.26517L7.08991 8.73517C7.61991 8.64517 8.25991 8.17517 8.49991 7.68517L10.2599 4.16517C11.2199 2.25517 12.7799 2.25517 13.7299 4.16517Z" stroke="#FFC107" stroke-width="1.5" stroke-linecap="round" stroke-linejoin="round"/>
</svg>
